M48
; DRILL file {KiCad (6.0.0)} date Sat Jan 22 21:28:24 2022
; FORMAT={-:-/ absolute / inch / decimal}
; #@! TF.CreationDate,2022-01-22T21:28:24-08:00
; #@! TF.GenerationSoftware,Kicad,Pcbnew,(6.0.0)
; #@! TF.FileFunction,Plated,1,2,PTH
FMAT,2
INCH
; #@! TA.AperFunction,Plated,PTH,ViaDrill
T1C0.0157
; #@! TA.AperFunction,Plated,PTH,ComponentDrill
T2C0.0295
; #@! TA.AperFunction,Plated,PTH,ComponentDrill
T3C0.0315
; #@! TA.AperFunction,Plated,PTH,ComponentDrill
T4C0.0394
; #@! TA.AperFunction,Plated,PTH,ComponentDrill
T5C0.0433
; #@! TA.AperFunction,Plated,PTH,ComponentDrill
T6C0.0512
; #@! TA.AperFunction,Plated,PTH,ComponentDrill
T7C0.0591
; #@! TA.AperFunction,Plated,PTH,ComponentDrill
T8C0.0866
%
G90
G05
T1
X3.35Y-3.05
X3.55Y-3.6
X3.95Y-2.25
X4.35Y-2.5
X4.55Y-2.95
X4.55Y-3.15
X4.7Y-2.65
X4.75Y-3.15
X4.775Y-2.4
X5.375Y-3.475
X5.375Y-3.725
X5.5Y-2.55
X5.5Y-2.7
X5.5Y-2.85
X5.625Y-3.475
X5.625Y-3.725
X5.65Y-2.55
X5.65Y-2.7
X5.65Y-2.85
X5.8Y-2.55
X5.8Y-2.7
X5.8Y-2.85
X6.05Y-3.2
X6.25Y-2.25
X6.25Y-3.2
X6.45Y-3.25
X6.5Y-2.25
X6.8Y-2.25
X7.0Y-2.25
X7.05Y-3.55
X7.05Y-3.725
X7.15Y-2.9
X7.375Y-3.725
X7.4Y-2.3
X7.575Y-2.475
X7.6215Y-2.475
X7.8Y-2.8
X7.8Y-3.125
T2
X4.05Y-2.85
X4.1Y-2.85
X4.15Y-2.85
T3
X3.15Y-2.35
X3.15Y-2.65
X3.35Y-2.4
X3.35Y-2.5969
X3.641Y-3.1348
X3.7Y-3.4
X3.7Y-3.7
X3.7906Y-3.1348
X3.9Y-3.4
X3.9Y-3.7
X4.05Y-2.6
X4.05Y-3.15
X4.1Y-3.4
X4.1Y-3.7
X4.35Y-2.6
X4.35Y-2.775
X4.35Y-2.9719
X4.35Y-3.15
X4.475Y-2.125
X4.475Y-2.275
X4.55Y-2.5
X4.55Y-2.6
X4.55Y-2.7
X4.55Y-2.8
X4.75Y-2.95
X4.775Y-2.125
X4.775Y-2.275
X4.8484Y-2.95
X4.85Y-2.5
X4.85Y-2.6
X4.85Y-2.7
X4.85Y-2.8
X4.9Y-2.125
X4.9Y-2.275
X5.0Y-2.8
X5.05Y-2.4
X5.05Y-2.7
X5.0984Y-2.8
X5.2Y-2.125
X5.2Y-2.275
X5.85Y-3.4
X5.85Y-3.7
X6.05Y-3.4
X6.05Y-3.7
X6.052Y-2.1004
X6.1504Y-2.1004
X6.25Y-3.4
X6.25Y-3.7
X6.3Y-2.1
X6.3Y-2.4
X6.4Y-2.1
X6.4Y-2.4
X6.45Y-3.4
X6.45Y-3.7
X6.5Y-2.1
X6.5Y-2.4
X6.6Y-2.1
X6.6Y-2.4
X6.65Y-3.4
X6.65Y-3.4984
X6.7Y-2.1
X6.7Y-2.4
X6.7579Y-2.575
X6.8Y-2.1
X6.8Y-2.4
X6.9Y-2.1
X6.9Y-2.4
X6.95Y-2.575
X7.0Y-2.1
X7.0Y-2.4
X7.1Y-2.1
X7.1Y-2.4
X7.15Y-2.525
X7.2Y-2.1
X7.2Y-2.4
X7.2484Y-2.525
X7.3Y-2.1
X7.3Y-2.4
X7.35Y-2.525
X7.4Y-2.1
X7.4Y-2.4
X7.4484Y-2.525
X7.5Y-2.1
X7.5Y-2.4
X7.6Y-2.1
X7.6Y-2.4
T4
X3.15Y-3.45
X3.35Y-3.3
X3.35Y-3.4
X3.35Y-3.5
X3.35Y-3.6
X3.35Y-3.7
X3.45Y-3.3
X3.45Y-3.4
X3.45Y-3.5
X3.45Y-3.6
X3.45Y-3.7
X4.45Y-3.4
X4.45Y-3.6953
X4.95Y-3.4
X4.95Y-3.6953
X6.8791Y-2.8
X6.8791Y-2.9969
X7.45Y-2.8
X7.45Y-2.8984
X7.45Y-2.9969
X7.55Y-3.3
X7.55Y-3.4
X7.55Y-3.5
X7.55Y-3.6
X7.55Y-3.7
X7.65Y-3.3
X7.65Y-3.4
X7.65Y-3.5
X7.65Y-3.6
X7.65Y-3.7
X7.8Y-2.5
X7.8Y-2.6
X7.8Y-2.7
X7.9Y-2.5
X7.9Y-2.6
X7.9Y-2.7
X7.9Y-2.9
X7.9Y-3.0
T5
X3.15Y-2.9
X3.15Y-3.3
X3.6Y-2.8
X3.7Y-2.8
X3.8Y-2.8
X6.2441Y-2.65
X6.2441Y-2.8272
X6.2441Y-2.95
X6.2441Y-3.1272
X6.5Y-2.65
X6.5Y-2.8272
X6.5Y-2.95
X6.5Y-3.1272
T6
X4.1031Y-2.25
X4.3Y-2.25
T8
X3.15Y-2.1488
X3.15Y-3.6488
X7.85Y-2.1488
X7.85Y-3.6488
T3
G00X5.3287Y-3.5421
M15
G01X5.3484Y-3.5421
M16
G05
G00X5.3287Y-3.6579
M15
G01X5.3484Y-3.6579
M16
G05
G00X5.6516Y-3.5421
M15
G01X5.6713Y-3.5421
M16
G05
G00X5.6516Y-3.6579
M15
G01X5.6713Y-3.6579
M16
G05
T7
G00X7.1803Y-2.678
M15
G01X7.1291Y-2.678
M16
G05
G00X7.1803Y-3.1189
M15
G01X7.1291Y-3.1189
M16
G05
T0
M30
