%TF.GenerationSoftware,KiCad,Pcbnew,(6.0.0)*%
%TF.CreationDate,2022-01-22T21:28:23-08:00*%
%TF.ProjectId,nixie_main_board,6e697869-655f-46d6-9169-6e5f626f6172,rev?*%
%TF.SameCoordinates,Original*%
%TF.FileFunction,Soldermask,Bot*%
%TF.FilePolarity,Negative*%
%FSLAX46Y46*%
G04 Gerber Fmt 4.6, Leading zero omitted, Abs format (unit mm)*
G04 Created by KiCad (PCBNEW (6.0.0)) date 2022-01-22 21:28:23*
%MOMM*%
%LPD*%
G01*
G04 APERTURE LIST*
%ADD10C,1.600000*%
%ADD11O,1.600000X1.600000*%
%ADD12R,1.700000X1.700000*%
%ADD13O,1.700000X1.700000*%
%ADD14C,1.500000*%
%ADD15C,2.000000*%
%ADD16R,2.000000X2.000000*%
%ADD17R,3.200000X2.000000*%
%ADD18R,1.600000X1.600000*%
%ADD19C,2.600000*%
%ADD20R,1.050000X1.500000*%
%ADD21O,1.050000X1.500000*%
%ADD22O,3.500000X3.500000*%
%ADD23R,1.905000X2.000000*%
%ADD24O,1.905000X2.000000*%
%ADD25R,2.200000X2.200000*%
%ADD26O,2.200000X2.200000*%
%ADD27C,4.400000*%
%ADD28O,1.700000X1.200000*%
%ADD29R,0.270000X1.300000*%
%ADD30C,0.600000*%
G04 APERTURE END LIST*
D10*
%TO.C,R14*%
X113665000Y-57785000D03*
D11*
X121285000Y-57785000D03*
%TD*%
%TO.C,R13*%
X121285000Y-53975000D03*
D10*
X113665000Y-53975000D03*
%TD*%
D11*
%TO.C,R12*%
X124460000Y-57785000D03*
D10*
X132080000Y-57785000D03*
%TD*%
%TO.C,R11*%
X132080000Y-53975000D03*
D11*
X124460000Y-53975000D03*
%TD*%
D12*
%TO.C,J6*%
X80010000Y-87630000D03*
%TD*%
D10*
%TO.C,C9*%
X186690000Y-64135000D03*
X189190000Y-64135000D03*
%TD*%
D13*
%TO.C,J4*%
X200660000Y-76200000D03*
D12*
X200660000Y-73660000D03*
%TD*%
D10*
%TO.C,C11*%
X168910000Y-88860000D03*
X168910000Y-86360000D03*
%TD*%
D12*
%TO.C,J5*%
X200660000Y-68580000D03*
D13*
X198120000Y-68580000D03*
X200660000Y-66040000D03*
X198120000Y-66040000D03*
X200660000Y-63500000D03*
X198120000Y-63500000D03*
%TD*%
D14*
%TO.C,Y1*%
X171650000Y-65405000D03*
X176530000Y-65405000D03*
%TD*%
D15*
%TO.C,SW3*%
X165100000Y-79430000D03*
X165100000Y-74930000D03*
X158600000Y-79430000D03*
X158600000Y-74930000D03*
%TD*%
%TO.C,SW2*%
X158600000Y-67310000D03*
X158600000Y-71810000D03*
X165100000Y-67310000D03*
X165100000Y-71810000D03*
%TD*%
D16*
%TO.C,SW1*%
X189230000Y-71120000D03*
D15*
X189230000Y-73620000D03*
X189230000Y-76120000D03*
D17*
X181730000Y-68020000D03*
X181730000Y-79220000D03*
D15*
X174730000Y-71120000D03*
X174730000Y-76120000D03*
%TD*%
D11*
%TO.C,R10*%
X148590000Y-93980000D03*
D10*
X148590000Y-86360000D03*
%TD*%
D11*
%TO.C,R9*%
X153670000Y-93980000D03*
D10*
X153670000Y-86360000D03*
%TD*%
D11*
%TO.C,R8*%
X158750000Y-93980000D03*
D10*
X158750000Y-86360000D03*
%TD*%
%TO.C,R7*%
X163830000Y-86360000D03*
D11*
X163830000Y-93980000D03*
%TD*%
D10*
%TO.C,C10*%
X184110000Y-64135000D03*
X181610000Y-64135000D03*
%TD*%
%TO.C,C8*%
X153720000Y-53350000D03*
X156220000Y-53350000D03*
%TD*%
D15*
%TO.C,C1*%
X125730000Y-93860000D03*
D16*
X125730000Y-86360000D03*
%TD*%
%TO.C,C2*%
X113030000Y-86360000D03*
D15*
X113030000Y-93860000D03*
%TD*%
D10*
%TO.C,C3*%
X129500000Y-71120000D03*
X127000000Y-71120000D03*
%TD*%
%TO.C,C4*%
X110490000Y-70485000D03*
X110490000Y-75485000D03*
%TD*%
D18*
%TO.C,D1*%
X102870000Y-66040000D03*
D11*
X110490000Y-66040000D03*
%TD*%
D19*
%TO.C,L1*%
X109220000Y-57150000D03*
X104220000Y-57150000D03*
%TD*%
D20*
%TO.C,Q1*%
X105410000Y-72390000D03*
D21*
X104140000Y-72390000D03*
X102870000Y-72390000D03*
%TD*%
D22*
%TO.C,Q2*%
X93980000Y-54460000D03*
D23*
X91440000Y-71120000D03*
D24*
X93980000Y-71120000D03*
X96520000Y-71120000D03*
%TD*%
D10*
%TO.C,R3*%
X80010000Y-67310000D03*
D11*
X80010000Y-59690000D03*
%TD*%
D10*
%TO.C,R4*%
X93980000Y-93980000D03*
D11*
X93980000Y-86360000D03*
%TD*%
D10*
%TO.C,R5*%
X99060000Y-86360000D03*
D11*
X99060000Y-93980000D03*
%TD*%
D10*
%TO.C,R6*%
X104140000Y-86360000D03*
D11*
X104140000Y-93980000D03*
%TD*%
%TO.C,U1*%
X160020000Y-53340000D03*
X162560000Y-53340000D03*
X165100000Y-53340000D03*
X167640000Y-53340000D03*
X170180000Y-53340000D03*
X172720000Y-53340000D03*
X175260000Y-53340000D03*
X177800000Y-53340000D03*
X180340000Y-53340000D03*
X182880000Y-53340000D03*
X185420000Y-53340000D03*
X187960000Y-53340000D03*
X190500000Y-53340000D03*
X193040000Y-53340000D03*
X193040000Y-60960000D03*
X190500000Y-60960000D03*
X187960000Y-60960000D03*
X185420000Y-60960000D03*
X182880000Y-60960000D03*
X180340000Y-60960000D03*
X177800000Y-60960000D03*
X175260000Y-60960000D03*
X172720000Y-60960000D03*
X170180000Y-60960000D03*
X167640000Y-60960000D03*
X165100000Y-60960000D03*
X162560000Y-60960000D03*
D18*
X160020000Y-60960000D03*
%TD*%
D25*
%TO.C,D2*%
X80010000Y-83820000D03*
D26*
X80010000Y-73660000D03*
%TD*%
D12*
%TO.C,J2*%
X87630000Y-83820000D03*
D13*
X85090000Y-83820000D03*
X87630000Y-86360000D03*
X85090000Y-86360000D03*
X87630000Y-88900000D03*
X85090000Y-88900000D03*
X87630000Y-91440000D03*
X85090000Y-91440000D03*
X87630000Y-93980000D03*
X85090000Y-93980000D03*
%TD*%
D10*
%TO.C,C5*%
X85090000Y-60960000D03*
X85090000Y-65960000D03*
%TD*%
%TO.C,R2*%
X102870000Y-80010000D03*
D11*
X110490000Y-80010000D03*
%TD*%
D12*
%TO.C,J1*%
X194310000Y-83820000D03*
D13*
X191770000Y-83820000D03*
X194310000Y-86360000D03*
X191770000Y-86360000D03*
X194310000Y-88900000D03*
X191770000Y-88900000D03*
X194310000Y-91440000D03*
X191770000Y-91440000D03*
X194310000Y-93980000D03*
X191770000Y-93980000D03*
%TD*%
D10*
%TO.C,C6*%
X120650000Y-74930000D03*
X123150000Y-74930000D03*
%TD*%
%TO.C,R1*%
X128270000Y-68580000D03*
D11*
X128270000Y-60960000D03*
%TD*%
D18*
%TO.C,C7*%
X92480241Y-79625000D03*
D10*
X96280241Y-79625000D03*
%TD*%
D27*
%TO.C,H1*%
X199390000Y-54580000D03*
%TD*%
%TO.C,H4*%
X80010000Y-54580000D03*
%TD*%
D18*
%TO.C,U2*%
X115570000Y-63500000D03*
D11*
X115570000Y-66040000D03*
X115570000Y-68580000D03*
X115570000Y-71120000D03*
X123190000Y-71120000D03*
X123190000Y-68580000D03*
X123190000Y-66040000D03*
X123190000Y-63500000D03*
%TD*%
D27*
%TO.C,H3*%
X80010000Y-92680000D03*
%TD*%
%TO.C,H2*%
X199390000Y-92680000D03*
%TD*%
D28*
%TO.C,J3*%
X143800000Y-92910000D03*
X135600000Y-92910000D03*
X135600000Y-89970000D03*
X143800000Y-89970000D03*
D29*
X142450000Y-93190000D03*
X141950000Y-93190000D03*
X141450000Y-93190000D03*
X140950000Y-93190000D03*
X140450000Y-93190000D03*
X139950000Y-93190000D03*
X139450000Y-93190000D03*
X138950000Y-93190000D03*
X138450000Y-93190000D03*
X137950000Y-93190000D03*
X137450000Y-93190000D03*
X136950000Y-93190000D03*
X136950000Y-89690000D03*
X137450000Y-89690000D03*
X137950000Y-89690000D03*
X138450000Y-89690000D03*
X138950000Y-89690000D03*
X139450000Y-89690000D03*
X139950000Y-89690000D03*
X140450000Y-89690000D03*
X140950000Y-89690000D03*
X141450000Y-89690000D03*
X141950000Y-89690000D03*
X142450000Y-89690000D03*
D30*
X145200000Y-90140000D03*
X134200000Y-90140000D03*
%TD*%
M02*
