%TF.GenerationSoftware,KiCad,Pcbnew,(6.0.0)*%
%TF.CreationDate,2022-01-22T21:28:23-08:00*%
%TF.ProjectId,nixie_main_board,6e697869-655f-46d6-9169-6e5f626f6172,rev?*%
%TF.SameCoordinates,Original*%
%TF.FileFunction,Legend,Top*%
%TF.FilePolarity,Positive*%
%FSLAX46Y46*%
G04 Gerber Fmt 4.6, Leading zero omitted, Abs format (unit mm)*
G04 Created by KiCad (PCBNEW (6.0.0)) date 2022-01-22 21:28:23*
%MOMM*%
%LPD*%
G01*
G04 APERTURE LIST*
%ADD10C,0.150000*%
%ADD11C,0.120000*%
G04 APERTURE END LIST*
D10*
X77922380Y-88725238D02*
X77922380Y-89296666D01*
X77922380Y-89010952D02*
X76922380Y-89010952D01*
X77065238Y-89106190D01*
X77160476Y-89201428D01*
X77208095Y-89296666D01*
X76922380Y-88391904D02*
X76922380Y-87725238D01*
X77922380Y-88153809D01*
X76922380Y-87153809D02*
X76922380Y-87058571D01*
X76970000Y-86963333D01*
X77017619Y-86915714D01*
X77112857Y-86868095D01*
X77303333Y-86820476D01*
X77541428Y-86820476D01*
X77731904Y-86868095D01*
X77827142Y-86915714D01*
X77874761Y-86963333D01*
X77922380Y-87058571D01*
X77922380Y-87153809D01*
X77874761Y-87249047D01*
X77827142Y-87296666D01*
X77731904Y-87344285D01*
X77541428Y-87391904D01*
X77303333Y-87391904D01*
X77112857Y-87344285D01*
X77017619Y-87296666D01*
X76970000Y-87249047D01*
X76922380Y-87153809D01*
X76922380Y-86534761D02*
X77922380Y-86201428D01*
X76922380Y-85868095D01*
X197358095Y-73112380D02*
X197929523Y-73112380D01*
X197643809Y-74112380D02*
X197643809Y-73112380D01*
X198167619Y-73112380D02*
X198834285Y-74112380D01*
X198834285Y-73112380D02*
X198167619Y-74112380D01*
X197953333Y-76652380D02*
X197620000Y-76176190D01*
X197381904Y-76652380D02*
X197381904Y-75652380D01*
X197762857Y-75652380D01*
X197858095Y-75700000D01*
X197905714Y-75747619D01*
X197953333Y-75842857D01*
X197953333Y-75985714D01*
X197905714Y-76080952D01*
X197858095Y-76128571D01*
X197762857Y-76176190D01*
X197381904Y-76176190D01*
X198286666Y-75652380D02*
X198953333Y-76652380D01*
X198953333Y-75652380D02*
X198286666Y-76652380D01*
D11*
X202565000Y-64770000D02*
X202565000Y-67310000D01*
D10*
X198413809Y-61412380D02*
X198413809Y-60412380D01*
X198842380Y-61364761D02*
X198985238Y-61412380D01*
X199223333Y-61412380D01*
X199318571Y-61364761D01*
X199366190Y-61317142D01*
X199413809Y-61221904D01*
X199413809Y-61126666D01*
X199366190Y-61031428D01*
X199318571Y-60983809D01*
X199223333Y-60936190D01*
X199032857Y-60888571D01*
X198937619Y-60840952D01*
X198890000Y-60793333D01*
X198842380Y-60698095D01*
X198842380Y-60602857D01*
X198890000Y-60507619D01*
X198937619Y-60460000D01*
X199032857Y-60412380D01*
X199270952Y-60412380D01*
X199413809Y-60460000D01*
X199842380Y-61412380D02*
X199842380Y-60412380D01*
X200223333Y-60412380D01*
X200318571Y-60460000D01*
X200366190Y-60507619D01*
X200413809Y-60602857D01*
X200413809Y-60745714D01*
X200366190Y-60840952D01*
X200318571Y-60888571D01*
X200223333Y-60936190D01*
X199842380Y-60936190D01*
%TO.C,R14*%
X116832142Y-58237380D02*
X116498809Y-57761190D01*
X116260714Y-58237380D02*
X116260714Y-57237380D01*
X116641666Y-57237380D01*
X116736904Y-57285000D01*
X116784523Y-57332619D01*
X116832142Y-57427857D01*
X116832142Y-57570714D01*
X116784523Y-57665952D01*
X116736904Y-57713571D01*
X116641666Y-57761190D01*
X116260714Y-57761190D01*
X117784523Y-58237380D02*
X117213095Y-58237380D01*
X117498809Y-58237380D02*
X117498809Y-57237380D01*
X117403571Y-57380238D01*
X117308333Y-57475476D01*
X117213095Y-57523095D01*
X118641666Y-57570714D02*
X118641666Y-58237380D01*
X118403571Y-57189761D02*
X118165476Y-57904047D01*
X118784523Y-57904047D01*
%TO.C,R13*%
X116832142Y-54427380D02*
X116498809Y-53951190D01*
X116260714Y-54427380D02*
X116260714Y-53427380D01*
X116641666Y-53427380D01*
X116736904Y-53475000D01*
X116784523Y-53522619D01*
X116832142Y-53617857D01*
X116832142Y-53760714D01*
X116784523Y-53855952D01*
X116736904Y-53903571D01*
X116641666Y-53951190D01*
X116260714Y-53951190D01*
X117784523Y-54427380D02*
X117213095Y-54427380D01*
X117498809Y-54427380D02*
X117498809Y-53427380D01*
X117403571Y-53570238D01*
X117308333Y-53665476D01*
X117213095Y-53713095D01*
X118117857Y-53427380D02*
X118736904Y-53427380D01*
X118403571Y-53808333D01*
X118546428Y-53808333D01*
X118641666Y-53855952D01*
X118689285Y-53903571D01*
X118736904Y-53998809D01*
X118736904Y-54236904D01*
X118689285Y-54332142D01*
X118641666Y-54379761D01*
X118546428Y-54427380D01*
X118260714Y-54427380D01*
X118165476Y-54379761D01*
X118117857Y-54332142D01*
%TO.C,R12*%
X127627142Y-58237380D02*
X127293809Y-57761190D01*
X127055714Y-58237380D02*
X127055714Y-57237380D01*
X127436666Y-57237380D01*
X127531904Y-57285000D01*
X127579523Y-57332619D01*
X127627142Y-57427857D01*
X127627142Y-57570714D01*
X127579523Y-57665952D01*
X127531904Y-57713571D01*
X127436666Y-57761190D01*
X127055714Y-57761190D01*
X128579523Y-58237380D02*
X128008095Y-58237380D01*
X128293809Y-58237380D02*
X128293809Y-57237380D01*
X128198571Y-57380238D01*
X128103333Y-57475476D01*
X128008095Y-57523095D01*
X128960476Y-57332619D02*
X129008095Y-57285000D01*
X129103333Y-57237380D01*
X129341428Y-57237380D01*
X129436666Y-57285000D01*
X129484285Y-57332619D01*
X129531904Y-57427857D01*
X129531904Y-57523095D01*
X129484285Y-57665952D01*
X128912857Y-58237380D01*
X129531904Y-58237380D01*
%TO.C,R11*%
X127627142Y-54427380D02*
X127293809Y-53951190D01*
X127055714Y-54427380D02*
X127055714Y-53427380D01*
X127436666Y-53427380D01*
X127531904Y-53475000D01*
X127579523Y-53522619D01*
X127627142Y-53617857D01*
X127627142Y-53760714D01*
X127579523Y-53855952D01*
X127531904Y-53903571D01*
X127436666Y-53951190D01*
X127055714Y-53951190D01*
X128579523Y-54427380D02*
X128008095Y-54427380D01*
X128293809Y-54427380D02*
X128293809Y-53427380D01*
X128198571Y-53570238D01*
X128103333Y-53665476D01*
X128008095Y-53713095D01*
X129531904Y-54427380D02*
X128960476Y-54427380D01*
X129246190Y-54427380D02*
X129246190Y-53427380D01*
X129150952Y-53570238D01*
X129055714Y-53665476D01*
X128960476Y-53713095D01*
%TO.C,J6*%
X82232380Y-87963333D02*
X82946666Y-87963333D01*
X83089523Y-88010952D01*
X83184761Y-88106190D01*
X83232380Y-88249047D01*
X83232380Y-88344285D01*
X82232380Y-87058571D02*
X82232380Y-87249047D01*
X82280000Y-87344285D01*
X82327619Y-87391904D01*
X82470476Y-87487142D01*
X82660952Y-87534761D01*
X83041904Y-87534761D01*
X83137142Y-87487142D01*
X83184761Y-87439523D01*
X83232380Y-87344285D01*
X83232380Y-87153809D01*
X83184761Y-87058571D01*
X83137142Y-87010952D01*
X83041904Y-86963333D01*
X82803809Y-86963333D01*
X82708571Y-87010952D01*
X82660952Y-87058571D01*
X82613333Y-87153809D01*
X82613333Y-87344285D01*
X82660952Y-87439523D01*
X82708571Y-87487142D01*
X82803809Y-87534761D01*
%TO.C,C9*%
X190313333Y-67022142D02*
X190265714Y-67069761D01*
X190122857Y-67117380D01*
X190027619Y-67117380D01*
X189884761Y-67069761D01*
X189789523Y-66974523D01*
X189741904Y-66879285D01*
X189694285Y-66688809D01*
X189694285Y-66545952D01*
X189741904Y-66355476D01*
X189789523Y-66260238D01*
X189884761Y-66165000D01*
X190027619Y-66117380D01*
X190122857Y-66117380D01*
X190265714Y-66165000D01*
X190313333Y-66212619D01*
X190789523Y-67117380D02*
X190980000Y-67117380D01*
X191075238Y-67069761D01*
X191122857Y-67022142D01*
X191218095Y-66879285D01*
X191265714Y-66688809D01*
X191265714Y-66307857D01*
X191218095Y-66212619D01*
X191170476Y-66165000D01*
X191075238Y-66117380D01*
X190884761Y-66117380D01*
X190789523Y-66165000D01*
X190741904Y-66212619D01*
X190694285Y-66307857D01*
X190694285Y-66545952D01*
X190741904Y-66641190D01*
X190789523Y-66688809D01*
X190884761Y-66736428D01*
X191075238Y-66736428D01*
X191170476Y-66688809D01*
X191218095Y-66641190D01*
X191265714Y-66545952D01*
%TO.C,J4*%
X200326666Y-78402380D02*
X200326666Y-79116666D01*
X200279047Y-79259523D01*
X200183809Y-79354761D01*
X200040952Y-79402380D01*
X199945714Y-79402380D01*
X201231428Y-78735714D02*
X201231428Y-79402380D01*
X200993333Y-78354761D02*
X200755238Y-79069047D01*
X201374285Y-79069047D01*
%TO.C,C11*%
X171317142Y-88252857D02*
X171364761Y-88300476D01*
X171412380Y-88443333D01*
X171412380Y-88538571D01*
X171364761Y-88681428D01*
X171269523Y-88776666D01*
X171174285Y-88824285D01*
X170983809Y-88871904D01*
X170840952Y-88871904D01*
X170650476Y-88824285D01*
X170555238Y-88776666D01*
X170460000Y-88681428D01*
X170412380Y-88538571D01*
X170412380Y-88443333D01*
X170460000Y-88300476D01*
X170507619Y-88252857D01*
X171412380Y-87300476D02*
X171412380Y-87871904D01*
X171412380Y-87586190D02*
X170412380Y-87586190D01*
X170555238Y-87681428D01*
X170650476Y-87776666D01*
X170698095Y-87871904D01*
X171412380Y-86348095D02*
X171412380Y-86919523D01*
X171412380Y-86633809D02*
X170412380Y-86633809D01*
X170555238Y-86729047D01*
X170650476Y-86824285D01*
X170698095Y-86919523D01*
%TO.C,J5*%
X199056666Y-70362380D02*
X199056666Y-71076666D01*
X199009047Y-71219523D01*
X198913809Y-71314761D01*
X198770952Y-71362380D01*
X198675714Y-71362380D01*
X200009047Y-70362380D02*
X199532857Y-70362380D01*
X199485238Y-70838571D01*
X199532857Y-70790952D01*
X199628095Y-70743333D01*
X199866190Y-70743333D01*
X199961428Y-70790952D01*
X200009047Y-70838571D01*
X200056666Y-70933809D01*
X200056666Y-71171904D01*
X200009047Y-71267142D01*
X199961428Y-71314761D01*
X199866190Y-71362380D01*
X199628095Y-71362380D01*
X199532857Y-71314761D01*
X199485238Y-71267142D01*
%TO.C,Y1*%
X169803809Y-68906190D02*
X169803809Y-69382380D01*
X169470476Y-68382380D02*
X169803809Y-68906190D01*
X170137142Y-68382380D01*
X170994285Y-69382380D02*
X170422857Y-69382380D01*
X170708571Y-69382380D02*
X170708571Y-68382380D01*
X170613333Y-68525238D01*
X170518095Y-68620476D01*
X170422857Y-68668095D01*
%TO.C,R10*%
X151412380Y-90812857D02*
X150936190Y-91146190D01*
X151412380Y-91384285D02*
X150412380Y-91384285D01*
X150412380Y-91003333D01*
X150460000Y-90908095D01*
X150507619Y-90860476D01*
X150602857Y-90812857D01*
X150745714Y-90812857D01*
X150840952Y-90860476D01*
X150888571Y-90908095D01*
X150936190Y-91003333D01*
X150936190Y-91384285D01*
X151412380Y-89860476D02*
X151412380Y-90431904D01*
X151412380Y-90146190D02*
X150412380Y-90146190D01*
X150555238Y-90241428D01*
X150650476Y-90336666D01*
X150698095Y-90431904D01*
X150412380Y-89241428D02*
X150412380Y-89146190D01*
X150460000Y-89050952D01*
X150507619Y-89003333D01*
X150602857Y-88955714D01*
X150793333Y-88908095D01*
X151031428Y-88908095D01*
X151221904Y-88955714D01*
X151317142Y-89003333D01*
X151364761Y-89050952D01*
X151412380Y-89146190D01*
X151412380Y-89241428D01*
X151364761Y-89336666D01*
X151317142Y-89384285D01*
X151221904Y-89431904D01*
X151031428Y-89479523D01*
X150793333Y-89479523D01*
X150602857Y-89431904D01*
X150507619Y-89384285D01*
X150460000Y-89336666D01*
X150412380Y-89241428D01*
%TO.C,R9*%
X156492380Y-90336666D02*
X156016190Y-90670000D01*
X156492380Y-90908095D02*
X155492380Y-90908095D01*
X155492380Y-90527142D01*
X155540000Y-90431904D01*
X155587619Y-90384285D01*
X155682857Y-90336666D01*
X155825714Y-90336666D01*
X155920952Y-90384285D01*
X155968571Y-90431904D01*
X156016190Y-90527142D01*
X156016190Y-90908095D01*
X156492380Y-89860476D02*
X156492380Y-89670000D01*
X156444761Y-89574761D01*
X156397142Y-89527142D01*
X156254285Y-89431904D01*
X156063809Y-89384285D01*
X155682857Y-89384285D01*
X155587619Y-89431904D01*
X155540000Y-89479523D01*
X155492380Y-89574761D01*
X155492380Y-89765238D01*
X155540000Y-89860476D01*
X155587619Y-89908095D01*
X155682857Y-89955714D01*
X155920952Y-89955714D01*
X156016190Y-89908095D01*
X156063809Y-89860476D01*
X156111428Y-89765238D01*
X156111428Y-89574761D01*
X156063809Y-89479523D01*
X156016190Y-89431904D01*
X155920952Y-89384285D01*
%TO.C,R8*%
X161572380Y-90336666D02*
X161096190Y-90670000D01*
X161572380Y-90908095D02*
X160572380Y-90908095D01*
X160572380Y-90527142D01*
X160620000Y-90431904D01*
X160667619Y-90384285D01*
X160762857Y-90336666D01*
X160905714Y-90336666D01*
X161000952Y-90384285D01*
X161048571Y-90431904D01*
X161096190Y-90527142D01*
X161096190Y-90908095D01*
X161000952Y-89765238D02*
X160953333Y-89860476D01*
X160905714Y-89908095D01*
X160810476Y-89955714D01*
X160762857Y-89955714D01*
X160667619Y-89908095D01*
X160620000Y-89860476D01*
X160572380Y-89765238D01*
X160572380Y-89574761D01*
X160620000Y-89479523D01*
X160667619Y-89431904D01*
X160762857Y-89384285D01*
X160810476Y-89384285D01*
X160905714Y-89431904D01*
X160953333Y-89479523D01*
X161000952Y-89574761D01*
X161000952Y-89765238D01*
X161048571Y-89860476D01*
X161096190Y-89908095D01*
X161191428Y-89955714D01*
X161381904Y-89955714D01*
X161477142Y-89908095D01*
X161524761Y-89860476D01*
X161572380Y-89765238D01*
X161572380Y-89574761D01*
X161524761Y-89479523D01*
X161477142Y-89431904D01*
X161381904Y-89384285D01*
X161191428Y-89384285D01*
X161096190Y-89431904D01*
X161048571Y-89479523D01*
X161000952Y-89574761D01*
%TO.C,R7*%
X166652380Y-90336666D02*
X166176190Y-90670000D01*
X166652380Y-90908095D02*
X165652380Y-90908095D01*
X165652380Y-90527142D01*
X165700000Y-90431904D01*
X165747619Y-90384285D01*
X165842857Y-90336666D01*
X165985714Y-90336666D01*
X166080952Y-90384285D01*
X166128571Y-90431904D01*
X166176190Y-90527142D01*
X166176190Y-90908095D01*
X165652380Y-90003333D02*
X165652380Y-89336666D01*
X166652380Y-89765238D01*
%TO.C,C10*%
X184757142Y-67022142D02*
X184709523Y-67069761D01*
X184566666Y-67117380D01*
X184471428Y-67117380D01*
X184328571Y-67069761D01*
X184233333Y-66974523D01*
X184185714Y-66879285D01*
X184138095Y-66688809D01*
X184138095Y-66545952D01*
X184185714Y-66355476D01*
X184233333Y-66260238D01*
X184328571Y-66165000D01*
X184471428Y-66117380D01*
X184566666Y-66117380D01*
X184709523Y-66165000D01*
X184757142Y-66212619D01*
X185709523Y-67117380D02*
X185138095Y-67117380D01*
X185423809Y-67117380D02*
X185423809Y-66117380D01*
X185328571Y-66260238D01*
X185233333Y-66355476D01*
X185138095Y-66403095D01*
X186328571Y-66117380D02*
X186423809Y-66117380D01*
X186519047Y-66165000D01*
X186566666Y-66212619D01*
X186614285Y-66307857D01*
X186661904Y-66498333D01*
X186661904Y-66736428D01*
X186614285Y-66926904D01*
X186566666Y-67022142D01*
X186519047Y-67069761D01*
X186423809Y-67117380D01*
X186328571Y-67117380D01*
X186233333Y-67069761D01*
X186185714Y-67022142D01*
X186138095Y-66926904D01*
X186090476Y-66736428D01*
X186090476Y-66498333D01*
X186138095Y-66307857D01*
X186185714Y-66212619D01*
X186233333Y-66165000D01*
X186328571Y-66117380D01*
%TO.C,C8*%
X154803333Y-55757142D02*
X154755714Y-55804761D01*
X154612857Y-55852380D01*
X154517619Y-55852380D01*
X154374761Y-55804761D01*
X154279523Y-55709523D01*
X154231904Y-55614285D01*
X154184285Y-55423809D01*
X154184285Y-55280952D01*
X154231904Y-55090476D01*
X154279523Y-54995238D01*
X154374761Y-54900000D01*
X154517619Y-54852380D01*
X154612857Y-54852380D01*
X154755714Y-54900000D01*
X154803333Y-54947619D01*
X155374761Y-55280952D02*
X155279523Y-55233333D01*
X155231904Y-55185714D01*
X155184285Y-55090476D01*
X155184285Y-55042857D01*
X155231904Y-54947619D01*
X155279523Y-54900000D01*
X155374761Y-54852380D01*
X155565238Y-54852380D01*
X155660476Y-54900000D01*
X155708095Y-54947619D01*
X155755714Y-55042857D01*
X155755714Y-55090476D01*
X155708095Y-55185714D01*
X155660476Y-55233333D01*
X155565238Y-55280952D01*
X155374761Y-55280952D01*
X155279523Y-55328571D01*
X155231904Y-55376190D01*
X155184285Y-55471428D01*
X155184285Y-55661904D01*
X155231904Y-55757142D01*
X155279523Y-55804761D01*
X155374761Y-55852380D01*
X155565238Y-55852380D01*
X155660476Y-55804761D01*
X155708095Y-55757142D01*
X155755714Y-55661904D01*
X155755714Y-55471428D01*
X155708095Y-55376190D01*
X155660476Y-55328571D01*
X155565238Y-55280952D01*
%TO.C,C1*%
X132337142Y-90276666D02*
X132384761Y-90324285D01*
X132432380Y-90467142D01*
X132432380Y-90562380D01*
X132384761Y-90705238D01*
X132289523Y-90800476D01*
X132194285Y-90848095D01*
X132003809Y-90895714D01*
X131860952Y-90895714D01*
X131670476Y-90848095D01*
X131575238Y-90800476D01*
X131480000Y-90705238D01*
X131432380Y-90562380D01*
X131432380Y-90467142D01*
X131480000Y-90324285D01*
X131527619Y-90276666D01*
X132432380Y-89324285D02*
X132432380Y-89895714D01*
X132432380Y-89610000D02*
X131432380Y-89610000D01*
X131575238Y-89705238D01*
X131670476Y-89800476D01*
X131718095Y-89895714D01*
%TO.C,C2*%
X119637142Y-90276666D02*
X119684761Y-90324285D01*
X119732380Y-90467142D01*
X119732380Y-90562380D01*
X119684761Y-90705238D01*
X119589523Y-90800476D01*
X119494285Y-90848095D01*
X119303809Y-90895714D01*
X119160952Y-90895714D01*
X118970476Y-90848095D01*
X118875238Y-90800476D01*
X118780000Y-90705238D01*
X118732380Y-90562380D01*
X118732380Y-90467142D01*
X118780000Y-90324285D01*
X118827619Y-90276666D01*
X118827619Y-89895714D02*
X118780000Y-89848095D01*
X118732380Y-89752857D01*
X118732380Y-89514761D01*
X118780000Y-89419523D01*
X118827619Y-89371904D01*
X118922857Y-89324285D01*
X119018095Y-89324285D01*
X119160952Y-89371904D01*
X119732380Y-89943333D01*
X119732380Y-89324285D01*
%TO.C,C3*%
X128083333Y-73872142D02*
X128035714Y-73919761D01*
X127892857Y-73967380D01*
X127797619Y-73967380D01*
X127654761Y-73919761D01*
X127559523Y-73824523D01*
X127511904Y-73729285D01*
X127464285Y-73538809D01*
X127464285Y-73395952D01*
X127511904Y-73205476D01*
X127559523Y-73110238D01*
X127654761Y-73015000D01*
X127797619Y-72967380D01*
X127892857Y-72967380D01*
X128035714Y-73015000D01*
X128083333Y-73062619D01*
X128416666Y-72967380D02*
X129035714Y-72967380D01*
X128702380Y-73348333D01*
X128845238Y-73348333D01*
X128940476Y-73395952D01*
X128988095Y-73443571D01*
X129035714Y-73538809D01*
X129035714Y-73776904D01*
X128988095Y-73872142D01*
X128940476Y-73919761D01*
X128845238Y-73967380D01*
X128559523Y-73967380D01*
X128464285Y-73919761D01*
X128416666Y-73872142D01*
%TO.C,C4*%
X113347142Y-73151666D02*
X113394761Y-73199285D01*
X113442380Y-73342142D01*
X113442380Y-73437380D01*
X113394761Y-73580238D01*
X113299523Y-73675476D01*
X113204285Y-73723095D01*
X113013809Y-73770714D01*
X112870952Y-73770714D01*
X112680476Y-73723095D01*
X112585238Y-73675476D01*
X112490000Y-73580238D01*
X112442380Y-73437380D01*
X112442380Y-73342142D01*
X112490000Y-73199285D01*
X112537619Y-73151666D01*
X112775714Y-72294523D02*
X113442380Y-72294523D01*
X112394761Y-72532619D02*
X113109047Y-72770714D01*
X113109047Y-72151666D01*
%TO.C,D1*%
X105941904Y-64372380D02*
X105941904Y-63372380D01*
X106180000Y-63372380D01*
X106322857Y-63420000D01*
X106418095Y-63515238D01*
X106465714Y-63610476D01*
X106513333Y-63800952D01*
X106513333Y-63943809D01*
X106465714Y-64134285D01*
X106418095Y-64229523D01*
X106322857Y-64324761D01*
X106180000Y-64372380D01*
X105941904Y-64372380D01*
X107465714Y-64372380D02*
X106894285Y-64372380D01*
X107180000Y-64372380D02*
X107180000Y-63372380D01*
X107084761Y-63515238D01*
X106989523Y-63610476D01*
X106894285Y-63658095D01*
X102608095Y-64692380D02*
X102608095Y-63692380D01*
X103179523Y-64692380D02*
X102750952Y-64120952D01*
X103179523Y-63692380D02*
X102608095Y-64263809D01*
%TO.C,L1*%
X101723333Y-53442380D02*
X101247142Y-53442380D01*
X101247142Y-52442380D01*
X102580476Y-53442380D02*
X102009047Y-53442380D01*
X102294761Y-53442380D02*
X102294761Y-52442380D01*
X102199523Y-52585238D01*
X102104285Y-52680476D01*
X102009047Y-52728095D01*
%TO.C,Q1*%
X104044761Y-76497619D02*
X103949523Y-76450000D01*
X103854285Y-76354761D01*
X103711428Y-76211904D01*
X103616190Y-76164285D01*
X103520952Y-76164285D01*
X103568571Y-76402380D02*
X103473333Y-76354761D01*
X103378095Y-76259523D01*
X103330476Y-76069047D01*
X103330476Y-75735714D01*
X103378095Y-75545238D01*
X103473333Y-75450000D01*
X103568571Y-75402380D01*
X103759047Y-75402380D01*
X103854285Y-75450000D01*
X103949523Y-75545238D01*
X103997142Y-75735714D01*
X103997142Y-76069047D01*
X103949523Y-76259523D01*
X103854285Y-76354761D01*
X103759047Y-76402380D01*
X103568571Y-76402380D01*
X104949523Y-76402380D02*
X104378095Y-76402380D01*
X104663809Y-76402380D02*
X104663809Y-75402380D01*
X104568571Y-75545238D01*
X104473333Y-75640476D01*
X104378095Y-75688095D01*
%TO.C,Q2*%
X87534761Y-53627619D02*
X87439523Y-53580000D01*
X87344285Y-53484761D01*
X87201428Y-53341904D01*
X87106190Y-53294285D01*
X87010952Y-53294285D01*
X87058571Y-53532380D02*
X86963333Y-53484761D01*
X86868095Y-53389523D01*
X86820476Y-53199047D01*
X86820476Y-52865714D01*
X86868095Y-52675238D01*
X86963333Y-52580000D01*
X87058571Y-52532380D01*
X87249047Y-52532380D01*
X87344285Y-52580000D01*
X87439523Y-52675238D01*
X87487142Y-52865714D01*
X87487142Y-53199047D01*
X87439523Y-53389523D01*
X87344285Y-53484761D01*
X87249047Y-53532380D01*
X87058571Y-53532380D01*
X87868095Y-52627619D02*
X87915714Y-52580000D01*
X88010952Y-52532380D01*
X88249047Y-52532380D01*
X88344285Y-52580000D01*
X88391904Y-52627619D01*
X88439523Y-52722857D01*
X88439523Y-52818095D01*
X88391904Y-52960952D01*
X87820476Y-53532380D01*
X88439523Y-53532380D01*
%TO.C,R3*%
X78092380Y-63666666D02*
X77616190Y-64000000D01*
X78092380Y-64238095D02*
X77092380Y-64238095D01*
X77092380Y-63857142D01*
X77140000Y-63761904D01*
X77187619Y-63714285D01*
X77282857Y-63666666D01*
X77425714Y-63666666D01*
X77520952Y-63714285D01*
X77568571Y-63761904D01*
X77616190Y-63857142D01*
X77616190Y-64238095D01*
X77092380Y-63333333D02*
X77092380Y-62714285D01*
X77473333Y-63047619D01*
X77473333Y-62904761D01*
X77520952Y-62809523D01*
X77568571Y-62761904D01*
X77663809Y-62714285D01*
X77901904Y-62714285D01*
X77997142Y-62761904D01*
X78044761Y-62809523D01*
X78092380Y-62904761D01*
X78092380Y-63190476D01*
X78044761Y-63285714D01*
X77997142Y-63333333D01*
%TO.C,R4*%
X92062380Y-90336666D02*
X91586190Y-90670000D01*
X92062380Y-90908095D02*
X91062380Y-90908095D01*
X91062380Y-90527142D01*
X91110000Y-90431904D01*
X91157619Y-90384285D01*
X91252857Y-90336666D01*
X91395714Y-90336666D01*
X91490952Y-90384285D01*
X91538571Y-90431904D01*
X91586190Y-90527142D01*
X91586190Y-90908095D01*
X91395714Y-89479523D02*
X92062380Y-89479523D01*
X91014761Y-89717619D02*
X91729047Y-89955714D01*
X91729047Y-89336666D01*
%TO.C,R5*%
X101882380Y-90336666D02*
X101406190Y-90670000D01*
X101882380Y-90908095D02*
X100882380Y-90908095D01*
X100882380Y-90527142D01*
X100930000Y-90431904D01*
X100977619Y-90384285D01*
X101072857Y-90336666D01*
X101215714Y-90336666D01*
X101310952Y-90384285D01*
X101358571Y-90431904D01*
X101406190Y-90527142D01*
X101406190Y-90908095D01*
X100882380Y-89431904D02*
X100882380Y-89908095D01*
X101358571Y-89955714D01*
X101310952Y-89908095D01*
X101263333Y-89812857D01*
X101263333Y-89574761D01*
X101310952Y-89479523D01*
X101358571Y-89431904D01*
X101453809Y-89384285D01*
X101691904Y-89384285D01*
X101787142Y-89431904D01*
X101834761Y-89479523D01*
X101882380Y-89574761D01*
X101882380Y-89812857D01*
X101834761Y-89908095D01*
X101787142Y-89955714D01*
%TO.C,R6*%
X106962380Y-90336666D02*
X106486190Y-90670000D01*
X106962380Y-90908095D02*
X105962380Y-90908095D01*
X105962380Y-90527142D01*
X106010000Y-90431904D01*
X106057619Y-90384285D01*
X106152857Y-90336666D01*
X106295714Y-90336666D01*
X106390952Y-90384285D01*
X106438571Y-90431904D01*
X106486190Y-90527142D01*
X106486190Y-90908095D01*
X105962380Y-89479523D02*
X105962380Y-89670000D01*
X106010000Y-89765238D01*
X106057619Y-89812857D01*
X106200476Y-89908095D01*
X106390952Y-89955714D01*
X106771904Y-89955714D01*
X106867142Y-89908095D01*
X106914761Y-89860476D01*
X106962380Y-89765238D01*
X106962380Y-89574761D01*
X106914761Y-89479523D01*
X106867142Y-89431904D01*
X106771904Y-89384285D01*
X106533809Y-89384285D01*
X106438571Y-89431904D01*
X106390952Y-89479523D01*
X106343333Y-89574761D01*
X106343333Y-89765238D01*
X106390952Y-89860476D01*
X106438571Y-89908095D01*
X106533809Y-89955714D01*
%TO.C,U1*%
X157142380Y-57911904D02*
X157951904Y-57911904D01*
X158047142Y-57864285D01*
X158094761Y-57816666D01*
X158142380Y-57721428D01*
X158142380Y-57530952D01*
X158094761Y-57435714D01*
X158047142Y-57388095D01*
X157951904Y-57340476D01*
X157142380Y-57340476D01*
X158142380Y-56340476D02*
X158142380Y-56911904D01*
X158142380Y-56626190D02*
X157142380Y-56626190D01*
X157285238Y-56721428D01*
X157380476Y-56816666D01*
X157428095Y-56911904D01*
%TO.C,BT1*%
X151058571Y-69365714D02*
X151106190Y-69222857D01*
X151153809Y-69175238D01*
X151249047Y-69127619D01*
X151391904Y-69127619D01*
X151487142Y-69175238D01*
X151534761Y-69222857D01*
X151582380Y-69318095D01*
X151582380Y-69699047D01*
X150582380Y-69699047D01*
X150582380Y-69365714D01*
X150630000Y-69270476D01*
X150677619Y-69222857D01*
X150772857Y-69175238D01*
X150868095Y-69175238D01*
X150963333Y-69222857D01*
X151010952Y-69270476D01*
X151058571Y-69365714D01*
X151058571Y-69699047D01*
X150582380Y-68841904D02*
X150582380Y-68270476D01*
X151582380Y-68556190D02*
X150582380Y-68556190D01*
X151582380Y-67413333D02*
X151582380Y-67984761D01*
X151582380Y-67699047D02*
X150582380Y-67699047D01*
X150725238Y-67794285D01*
X150820476Y-67889523D01*
X150868095Y-67984761D01*
%TO.C,D2*%
X77992380Y-79478095D02*
X76992380Y-79478095D01*
X76992380Y-79240000D01*
X77040000Y-79097142D01*
X77135238Y-79001904D01*
X77230476Y-78954285D01*
X77420952Y-78906666D01*
X77563809Y-78906666D01*
X77754285Y-78954285D01*
X77849523Y-79001904D01*
X77944761Y-79097142D01*
X77992380Y-79240000D01*
X77992380Y-79478095D01*
X77087619Y-78525714D02*
X77040000Y-78478095D01*
X76992380Y-78382857D01*
X76992380Y-78144761D01*
X77040000Y-78049523D01*
X77087619Y-78001904D01*
X77182857Y-77954285D01*
X77278095Y-77954285D01*
X77420952Y-78001904D01*
X77992380Y-78573333D01*
X77992380Y-77954285D01*
X78362380Y-84081904D02*
X77362380Y-84081904D01*
X78362380Y-83510476D02*
X77790952Y-83939047D01*
X77362380Y-83510476D02*
X77933809Y-84081904D01*
%TO.C,J2*%
X86026666Y-80502380D02*
X86026666Y-81216666D01*
X85979047Y-81359523D01*
X85883809Y-81454761D01*
X85740952Y-81502380D01*
X85645714Y-81502380D01*
X86455238Y-80597619D02*
X86502857Y-80550000D01*
X86598095Y-80502380D01*
X86836190Y-80502380D01*
X86931428Y-80550000D01*
X86979047Y-80597619D01*
X87026666Y-80692857D01*
X87026666Y-80788095D01*
X86979047Y-80930952D01*
X86407619Y-81502380D01*
X87026666Y-81502380D01*
%TO.C,C5*%
X87947142Y-63626666D02*
X87994761Y-63674285D01*
X88042380Y-63817142D01*
X88042380Y-63912380D01*
X87994761Y-64055238D01*
X87899523Y-64150476D01*
X87804285Y-64198095D01*
X87613809Y-64245714D01*
X87470952Y-64245714D01*
X87280476Y-64198095D01*
X87185238Y-64150476D01*
X87090000Y-64055238D01*
X87042380Y-63912380D01*
X87042380Y-63817142D01*
X87090000Y-63674285D01*
X87137619Y-63626666D01*
X87042380Y-62721904D02*
X87042380Y-63198095D01*
X87518571Y-63245714D01*
X87470952Y-63198095D01*
X87423333Y-63102857D01*
X87423333Y-62864761D01*
X87470952Y-62769523D01*
X87518571Y-62721904D01*
X87613809Y-62674285D01*
X87851904Y-62674285D01*
X87947142Y-62721904D01*
X87994761Y-62769523D01*
X88042380Y-62864761D01*
X88042380Y-63102857D01*
X87994761Y-63198095D01*
X87947142Y-63245714D01*
%TO.C,R2*%
X106513333Y-78092380D02*
X106180000Y-77616190D01*
X105941904Y-78092380D02*
X105941904Y-77092380D01*
X106322857Y-77092380D01*
X106418095Y-77140000D01*
X106465714Y-77187619D01*
X106513333Y-77282857D01*
X106513333Y-77425714D01*
X106465714Y-77520952D01*
X106418095Y-77568571D01*
X106322857Y-77616190D01*
X105941904Y-77616190D01*
X106894285Y-77187619D02*
X106941904Y-77140000D01*
X107037142Y-77092380D01*
X107275238Y-77092380D01*
X107370476Y-77140000D01*
X107418095Y-77187619D01*
X107465714Y-77282857D01*
X107465714Y-77378095D01*
X107418095Y-77520952D01*
X106846666Y-78092380D01*
X107465714Y-78092380D01*
%TO.C,J1*%
X192706666Y-80502380D02*
X192706666Y-81216666D01*
X192659047Y-81359523D01*
X192563809Y-81454761D01*
X192420952Y-81502380D01*
X192325714Y-81502380D01*
X193706666Y-81502380D02*
X193135238Y-81502380D01*
X193420952Y-81502380D02*
X193420952Y-80502380D01*
X193325714Y-80645238D01*
X193230476Y-80740476D01*
X193135238Y-80788095D01*
%TO.C,C6*%
X121733333Y-77682142D02*
X121685714Y-77729761D01*
X121542857Y-77777380D01*
X121447619Y-77777380D01*
X121304761Y-77729761D01*
X121209523Y-77634523D01*
X121161904Y-77539285D01*
X121114285Y-77348809D01*
X121114285Y-77205952D01*
X121161904Y-77015476D01*
X121209523Y-76920238D01*
X121304761Y-76825000D01*
X121447619Y-76777380D01*
X121542857Y-76777380D01*
X121685714Y-76825000D01*
X121733333Y-76872619D01*
X122590476Y-76777380D02*
X122400000Y-76777380D01*
X122304761Y-76825000D01*
X122257142Y-76872619D01*
X122161904Y-77015476D01*
X122114285Y-77205952D01*
X122114285Y-77586904D01*
X122161904Y-77682142D01*
X122209523Y-77729761D01*
X122304761Y-77777380D01*
X122495238Y-77777380D01*
X122590476Y-77729761D01*
X122638095Y-77682142D01*
X122685714Y-77586904D01*
X122685714Y-77348809D01*
X122638095Y-77253571D01*
X122590476Y-77205952D01*
X122495238Y-77158333D01*
X122304761Y-77158333D01*
X122209523Y-77205952D01*
X122161904Y-77253571D01*
X122114285Y-77348809D01*
%TO.C,U5*%
X178308095Y-83522380D02*
X178308095Y-84331904D01*
X178355714Y-84427142D01*
X178403333Y-84474761D01*
X178498571Y-84522380D01*
X178689047Y-84522380D01*
X178784285Y-84474761D01*
X178831904Y-84427142D01*
X178879523Y-84331904D01*
X178879523Y-83522380D01*
X179831904Y-83522380D02*
X179355714Y-83522380D01*
X179308095Y-83998571D01*
X179355714Y-83950952D01*
X179450952Y-83903333D01*
X179689047Y-83903333D01*
X179784285Y-83950952D01*
X179831904Y-83998571D01*
X179879523Y-84093809D01*
X179879523Y-84331904D01*
X179831904Y-84427142D01*
X179784285Y-84474761D01*
X179689047Y-84522380D01*
X179450952Y-84522380D01*
X179355714Y-84474761D01*
X179308095Y-84427142D01*
%TO.C,R1*%
X126182380Y-64936666D02*
X125706190Y-65270000D01*
X126182380Y-65508095D02*
X125182380Y-65508095D01*
X125182380Y-65127142D01*
X125230000Y-65031904D01*
X125277619Y-64984285D01*
X125372857Y-64936666D01*
X125515714Y-64936666D01*
X125610952Y-64984285D01*
X125658571Y-65031904D01*
X125706190Y-65127142D01*
X125706190Y-65508095D01*
X126182380Y-63984285D02*
X126182380Y-64555714D01*
X126182380Y-64270000D02*
X125182380Y-64270000D01*
X125325238Y-64365238D01*
X125420476Y-64460476D01*
X125468095Y-64555714D01*
%TO.C,C7*%
X94213574Y-74732142D02*
X94165955Y-74779761D01*
X94023098Y-74827380D01*
X93927860Y-74827380D01*
X93785002Y-74779761D01*
X93689764Y-74684523D01*
X93642145Y-74589285D01*
X93594526Y-74398809D01*
X93594526Y-74255952D01*
X93642145Y-74065476D01*
X93689764Y-73970238D01*
X93785002Y-73875000D01*
X93927860Y-73827380D01*
X94023098Y-73827380D01*
X94165955Y-73875000D01*
X94213574Y-73922619D01*
X94546907Y-73827380D02*
X95213574Y-73827380D01*
X94785002Y-74827380D01*
%TO.C,U2*%
X118618095Y-60622380D02*
X118618095Y-61431904D01*
X118665714Y-61527142D01*
X118713333Y-61574761D01*
X118808571Y-61622380D01*
X118999047Y-61622380D01*
X119094285Y-61574761D01*
X119141904Y-61527142D01*
X119189523Y-61431904D01*
X119189523Y-60622380D01*
X119618095Y-60717619D02*
X119665714Y-60670000D01*
X119760952Y-60622380D01*
X119999047Y-60622380D01*
X120094285Y-60670000D01*
X120141904Y-60717619D01*
X120189523Y-60812857D01*
X120189523Y-60908095D01*
X120141904Y-61050952D01*
X119570476Y-61622380D01*
X120189523Y-61622380D01*
D11*
%TO.C,R14*%
X114205000Y-56745000D02*
X114205000Y-56415000D01*
X114205000Y-56415000D02*
X120745000Y-56415000D01*
X120745000Y-56415000D02*
X120745000Y-56745000D01*
X114205000Y-58825000D02*
X114205000Y-59155000D01*
X114205000Y-59155000D02*
X120745000Y-59155000D01*
X120745000Y-59155000D02*
X120745000Y-58825000D01*
%TO.C,R13*%
X120745000Y-55345000D02*
X120745000Y-55015000D01*
X114205000Y-55345000D02*
X120745000Y-55345000D01*
X114205000Y-55015000D02*
X114205000Y-55345000D01*
X120745000Y-52605000D02*
X120745000Y-52935000D01*
X114205000Y-52605000D02*
X120745000Y-52605000D01*
X114205000Y-52935000D02*
X114205000Y-52605000D01*
%TO.C,R12*%
X125000000Y-56415000D02*
X125000000Y-56745000D01*
X131540000Y-56415000D02*
X125000000Y-56415000D01*
X131540000Y-56745000D02*
X131540000Y-56415000D01*
X125000000Y-59155000D02*
X125000000Y-58825000D01*
X131540000Y-59155000D02*
X125000000Y-59155000D01*
X131540000Y-58825000D02*
X131540000Y-59155000D01*
%TO.C,R11*%
X131540000Y-55015000D02*
X131540000Y-55345000D01*
X131540000Y-55345000D02*
X125000000Y-55345000D01*
X125000000Y-55345000D02*
X125000000Y-55015000D01*
X131540000Y-52935000D02*
X131540000Y-52605000D01*
X131540000Y-52605000D02*
X125000000Y-52605000D01*
X125000000Y-52605000D02*
X125000000Y-52935000D01*
%TO.C,J6*%
X78680000Y-86300000D02*
X78680000Y-88960000D01*
X78800000Y-86300000D02*
X78680000Y-86300000D01*
X78800000Y-88960000D02*
X78680000Y-88960000D01*
X81340000Y-88960000D02*
X80010000Y-88960000D01*
X81340000Y-87630000D02*
X81340000Y-88960000D01*
%TO.C,C9*%
X185920000Y-62715000D02*
X189960000Y-62715000D01*
X185920000Y-65555000D02*
X189960000Y-65555000D01*
X185920000Y-62715000D02*
X185920000Y-63340000D01*
X185920000Y-64930000D02*
X185920000Y-65555000D01*
X189960000Y-62715000D02*
X189960000Y-63340000D01*
X189960000Y-64930000D02*
X189960000Y-65555000D01*
%TO.C,J4*%
X199330000Y-72330000D02*
X200660000Y-72330000D01*
X199330000Y-73660000D02*
X199330000Y-72330000D01*
X199330000Y-74930000D02*
X201990000Y-74930000D01*
X201990000Y-74930000D02*
X201990000Y-77530000D01*
X199330000Y-74930000D02*
X199330000Y-77530000D01*
X199330000Y-77530000D02*
X201990000Y-77530000D01*
%TO.C,C11*%
X167990000Y-86981000D02*
X167990000Y-88239000D01*
X169830000Y-86981000D02*
X169830000Y-88239000D01*
%TO.C,J5*%
X201990000Y-62170000D02*
X196790000Y-62170000D01*
X201990000Y-67310000D02*
X201990000Y-62170000D01*
X196790000Y-69910000D02*
X196790000Y-62170000D01*
X201990000Y-67310000D02*
X199390000Y-67310000D01*
X199390000Y-67310000D02*
X199390000Y-69910000D01*
X199390000Y-69910000D02*
X196790000Y-69910000D01*
X201990000Y-68580000D02*
X201990000Y-69910000D01*
X201990000Y-69910000D02*
X200660000Y-69910000D01*
%TO.C,Y1*%
X170965000Y-62880000D02*
G75*
G03*
X170965000Y-67930000I0J-2525000D01*
G01*
X177215000Y-67930000D02*
G75*
G03*
X177215000Y-62880000I0J2525000D01*
G01*
X177215000Y-62880000D02*
X170965000Y-62880000D01*
X177215000Y-67930000D02*
X170965000Y-67930000D01*
%TO.C,R10*%
X147220000Y-93440000D02*
X147550000Y-93440000D01*
X147220000Y-86900000D02*
X147220000Y-93440000D01*
X147550000Y-86900000D02*
X147220000Y-86900000D01*
X149960000Y-93440000D02*
X149630000Y-93440000D01*
X149960000Y-86900000D02*
X149960000Y-93440000D01*
X149630000Y-86900000D02*
X149960000Y-86900000D01*
%TO.C,R9*%
X152300000Y-93440000D02*
X152630000Y-93440000D01*
X152300000Y-86900000D02*
X152300000Y-93440000D01*
X152630000Y-86900000D02*
X152300000Y-86900000D01*
X155040000Y-93440000D02*
X154710000Y-93440000D01*
X155040000Y-86900000D02*
X155040000Y-93440000D01*
X154710000Y-86900000D02*
X155040000Y-86900000D01*
%TO.C,R8*%
X157380000Y-93440000D02*
X157710000Y-93440000D01*
X157380000Y-86900000D02*
X157380000Y-93440000D01*
X157710000Y-86900000D02*
X157380000Y-86900000D01*
X160120000Y-93440000D02*
X159790000Y-93440000D01*
X160120000Y-86900000D02*
X160120000Y-93440000D01*
X159790000Y-86900000D02*
X160120000Y-86900000D01*
%TO.C,R7*%
X164870000Y-86900000D02*
X165200000Y-86900000D01*
X165200000Y-86900000D02*
X165200000Y-93440000D01*
X165200000Y-93440000D02*
X164870000Y-93440000D01*
X162790000Y-86900000D02*
X162460000Y-86900000D01*
X162460000Y-86900000D02*
X162460000Y-93440000D01*
X162460000Y-93440000D02*
X162790000Y-93440000D01*
%TO.C,C10*%
X184880000Y-64930000D02*
X184880000Y-65555000D01*
X184880000Y-62715000D02*
X184880000Y-63340000D01*
X180840000Y-64930000D02*
X180840000Y-65555000D01*
X180840000Y-62715000D02*
X180840000Y-63340000D01*
X180840000Y-65555000D02*
X184880000Y-65555000D01*
X180840000Y-62715000D02*
X184880000Y-62715000D01*
%TO.C,C8*%
X155599000Y-52430000D02*
X154341000Y-52430000D01*
X155599000Y-54270000D02*
X154341000Y-54270000D01*
%TO.C,C1*%
X124470000Y-85147460D02*
G75*
G03*
X126990000Y-85147460I1260000J-4962540D01*
G01*
X124489000Y-94071000D02*
X122524000Y-94071000D01*
X128095000Y-94631000D02*
X126971000Y-94631000D01*
X126592000Y-95151000D02*
X124868000Y-95151000D01*
X128019000Y-94671000D02*
X126971000Y-94671000D01*
X129483000Y-93551000D02*
X126971000Y-93551000D01*
X130765000Y-90790000D02*
X120695000Y-90790000D01*
X130677000Y-91271000D02*
X120783000Y-91271000D01*
X130420000Y-92071000D02*
X121040000Y-92071000D01*
X124489000Y-95031000D02*
X124352000Y-95031000D01*
X124489000Y-94591000D02*
X123291000Y-94591000D01*
X128309000Y-94511000D02*
X126971000Y-94511000D01*
X130003000Y-92871000D02*
X126971000Y-92871000D01*
X128500000Y-94391000D02*
X126971000Y-94391000D01*
X130101000Y-92711000D02*
X126971000Y-92711000D01*
X129951000Y-92951000D02*
X126971000Y-92951000D01*
X129208000Y-93831000D02*
X126971000Y-93831000D01*
X130810000Y-90150000D02*
X120650000Y-90150000D01*
X130668000Y-91311000D02*
X120792000Y-91311000D01*
X130333000Y-92271000D02*
X121127000Y-92271000D01*
X130369000Y-92191000D02*
X121091000Y-92191000D01*
X130498000Y-91871000D02*
X120962000Y-91871000D01*
X128169000Y-94591000D02*
X126971000Y-94591000D01*
X130686000Y-91231000D02*
X120774000Y-91231000D01*
X130805000Y-90350000D02*
X120655000Y-90350000D01*
X124489000Y-93631000D02*
X122051000Y-93631000D01*
X129409000Y-93631000D02*
X126971000Y-93631000D01*
X130234000Y-92471000D02*
X121226000Y-92471000D01*
X130704000Y-91151000D02*
X120756000Y-91151000D01*
X130275000Y-92391000D02*
X121185000Y-92391000D01*
X130800000Y-90430000D02*
X120660000Y-90430000D01*
X129622000Y-93391000D02*
X126971000Y-93391000D01*
X127360000Y-94951000D02*
X126971000Y-94951000D01*
X124489000Y-93391000D02*
X121838000Y-93391000D01*
X130513000Y-91831000D02*
X120947000Y-91831000D01*
X124489000Y-94631000D02*
X123365000Y-94631000D01*
X129031000Y-93991000D02*
X126971000Y-93991000D01*
X124489000Y-94311000D02*
X122841000Y-94311000D01*
X130604000Y-91551000D02*
X120856000Y-91551000D01*
X130387000Y-92151000D02*
X121073000Y-92151000D01*
X130077000Y-92751000D02*
X126971000Y-92751000D01*
X127576000Y-94871000D02*
X126971000Y-94871000D01*
X124489000Y-94751000D02*
X123605000Y-94751000D01*
X128984000Y-94031000D02*
X126971000Y-94031000D01*
X130760000Y-90831000D02*
X120700000Y-90831000D01*
X130294000Y-92351000D02*
X121166000Y-92351000D01*
X130658000Y-91351000D02*
X120802000Y-91351000D01*
X124489000Y-93911000D02*
X122338000Y-93911000D01*
X124489000Y-92911000D02*
X121483000Y-92911000D01*
X124489000Y-93231000D02*
X121710000Y-93231000D01*
X124489000Y-92991000D02*
X121536000Y-92991000D01*
X130809000Y-90230000D02*
X120651000Y-90230000D01*
X129924000Y-92991000D02*
X126971000Y-92991000D01*
X130734000Y-90991000D02*
X120726000Y-90991000D01*
X130437000Y-92031000D02*
X121023000Y-92031000D01*
X130053000Y-92791000D02*
X126971000Y-92791000D01*
X124489000Y-93871000D02*
X122294000Y-93871000D01*
X124489000Y-94111000D02*
X122574000Y-94111000D01*
X128886000Y-94111000D02*
X126971000Y-94111000D01*
X124489000Y-94831000D02*
X123786000Y-94831000D01*
X129446000Y-93591000D02*
X126971000Y-93591000D01*
X130125000Y-92671000D02*
X126971000Y-92671000D01*
X124489000Y-94791000D02*
X123693000Y-94791000D01*
X129077000Y-93951000D02*
X126971000Y-93951000D01*
X130453000Y-91991000D02*
X121007000Y-91991000D01*
X130754000Y-90871000D02*
X120706000Y-90871000D01*
X124489000Y-92711000D02*
X121359000Y-92711000D01*
X130748000Y-90911000D02*
X120712000Y-90911000D01*
X129122000Y-93911000D02*
X126971000Y-93911000D01*
X128836000Y-94151000D02*
X126971000Y-94151000D01*
X130592000Y-91591000D02*
X120868000Y-91591000D01*
X129554000Y-93471000D02*
X126971000Y-93471000D01*
X124489000Y-93951000D02*
X122383000Y-93951000D01*
X130567000Y-91671000D02*
X120893000Y-91671000D01*
X128375000Y-94471000D02*
X126971000Y-94471000D01*
X130720000Y-91071000D02*
X120740000Y-91071000D01*
X128936000Y-94071000D02*
X126971000Y-94071000D01*
X124489000Y-94351000D02*
X122900000Y-94351000D01*
X124489000Y-94551000D02*
X123220000Y-94551000D01*
X129655000Y-93351000D02*
X126971000Y-93351000D01*
X130792000Y-90550000D02*
X120668000Y-90550000D01*
X127108000Y-95031000D02*
X126971000Y-95031000D01*
X124489000Y-93311000D02*
X121773000Y-93311000D01*
X129166000Y-93871000D02*
X126971000Y-93871000D01*
X124489000Y-94871000D02*
X123884000Y-94871000D01*
X130807000Y-90310000D02*
X120653000Y-90310000D01*
X129977000Y-92911000D02*
X126971000Y-92911000D01*
X124489000Y-93711000D02*
X122129000Y-93711000D01*
X130780000Y-90670000D02*
X120680000Y-90670000D01*
X130314000Y-92311000D02*
X121146000Y-92311000D01*
X130795000Y-90510000D02*
X120665000Y-90510000D01*
X129840000Y-93111000D02*
X126971000Y-93111000D01*
X130255000Y-92431000D02*
X121205000Y-92431000D01*
X124489000Y-92951000D02*
X121509000Y-92951000D01*
X130808000Y-90270000D02*
X120652000Y-90270000D01*
X124489000Y-93991000D02*
X122429000Y-93991000D01*
X124489000Y-92751000D02*
X121383000Y-92751000D01*
X129719000Y-93271000D02*
X126971000Y-93271000D01*
X130351000Y-92231000D02*
X121109000Y-92231000D01*
X129780000Y-93191000D02*
X126971000Y-93191000D01*
X130541000Y-91751000D02*
X120919000Y-91751000D01*
X127939000Y-94711000D02*
X126971000Y-94711000D01*
X128240000Y-94551000D02*
X126971000Y-94551000D01*
X130170000Y-92591000D02*
X121290000Y-92591000D01*
X129588000Y-93431000D02*
X126971000Y-93431000D01*
X124489000Y-94671000D02*
X123441000Y-94671000D01*
X130028000Y-92831000D02*
X126971000Y-92831000D01*
X126329000Y-95191000D02*
X125131000Y-95191000D01*
X127855000Y-94751000D02*
X126971000Y-94751000D01*
X124489000Y-93111000D02*
X121620000Y-93111000D01*
X124489000Y-93431000D02*
X121872000Y-93431000D01*
X130627000Y-91471000D02*
X120833000Y-91471000D01*
X130404000Y-92111000D02*
X121056000Y-92111000D01*
X124489000Y-93751000D02*
X122169000Y-93751000D01*
X124489000Y-94511000D02*
X123151000Y-94511000D01*
X124489000Y-93671000D02*
X122090000Y-93671000D01*
X129687000Y-93311000D02*
X126971000Y-93311000D01*
X130784000Y-90630000D02*
X120676000Y-90630000D01*
X130615000Y-91511000D02*
X120845000Y-91511000D01*
X129519000Y-93511000D02*
X126971000Y-93511000D01*
X130648000Y-91391000D02*
X120812000Y-91391000D01*
X129750000Y-93231000D02*
X126971000Y-93231000D01*
X130147000Y-92631000D02*
X126971000Y-92631000D01*
X127240000Y-94991000D02*
X126971000Y-94991000D01*
X129868000Y-93071000D02*
X126971000Y-93071000D01*
X130775000Y-90710000D02*
X120685000Y-90710000D01*
X128619000Y-94311000D02*
X126971000Y-94311000D01*
X124489000Y-94191000D02*
X122676000Y-94191000D01*
X124489000Y-94151000D02*
X122624000Y-94151000D01*
X127472000Y-94911000D02*
X126971000Y-94911000D01*
X130727000Y-91031000D02*
X120733000Y-91031000D01*
X129810000Y-93151000D02*
X126971000Y-93151000D01*
X124489000Y-93191000D02*
X121680000Y-93191000D01*
X124489000Y-93591000D02*
X122014000Y-93591000D01*
X129250000Y-93791000D02*
X126971000Y-93791000D01*
X129105000Y-85130354D02*
X128105000Y-85130354D01*
X124489000Y-94711000D02*
X123521000Y-94711000D01*
X124489000Y-94391000D02*
X122960000Y-94391000D01*
X124489000Y-92791000D02*
X121407000Y-92791000D01*
X124489000Y-94231000D02*
X122730000Y-94231000D01*
X130213000Y-92511000D02*
X121247000Y-92511000D01*
X124489000Y-94471000D02*
X123085000Y-94471000D01*
X124489000Y-92631000D02*
X121313000Y-92631000D01*
X124489000Y-93791000D02*
X122210000Y-93791000D01*
X124489000Y-93151000D02*
X121650000Y-93151000D01*
X124489000Y-92871000D02*
X121457000Y-92871000D01*
X124489000Y-93271000D02*
X121741000Y-93271000D01*
X130770000Y-90750000D02*
X120690000Y-90750000D01*
X130484000Y-91911000D02*
X120976000Y-91911000D01*
X130468000Y-91951000D02*
X120992000Y-91951000D01*
X124489000Y-93511000D02*
X121941000Y-93511000D01*
X130695000Y-91191000D02*
X120765000Y-91191000D01*
X124489000Y-93351000D02*
X121805000Y-93351000D01*
X124489000Y-94991000D02*
X124220000Y-94991000D01*
X124489000Y-94271000D02*
X122785000Y-94271000D01*
X130810000Y-90110000D02*
X120650000Y-90110000D01*
X126792000Y-95111000D02*
X124668000Y-95111000D01*
X124489000Y-93471000D02*
X121906000Y-93471000D01*
X130810000Y-90190000D02*
X120650000Y-90190000D01*
X124489000Y-94031000D02*
X122476000Y-94031000D01*
X128605000Y-84630354D02*
X128605000Y-85630354D01*
X128784000Y-94191000D02*
X126971000Y-94191000D01*
X124489000Y-94951000D02*
X124100000Y-94951000D01*
X124489000Y-93031000D02*
X121564000Y-93031000D01*
X124489000Y-92831000D02*
X121432000Y-92831000D01*
X124489000Y-94431000D02*
X123021000Y-94431000D01*
X130637000Y-91431000D02*
X120823000Y-91431000D01*
X130803000Y-90390000D02*
X120657000Y-90390000D01*
X129896000Y-93031000D02*
X126971000Y-93031000D01*
X130741000Y-90951000D02*
X120719000Y-90951000D01*
X129331000Y-93711000D02*
X126971000Y-93711000D01*
X129370000Y-93671000D02*
X126971000Y-93671000D01*
X130712000Y-91111000D02*
X120748000Y-91111000D01*
X130798000Y-90470000D02*
X120662000Y-90470000D01*
X129291000Y-93751000D02*
X126971000Y-93751000D01*
X124489000Y-93831000D02*
X122252000Y-93831000D01*
X128560000Y-94351000D02*
X126971000Y-94351000D01*
X124489000Y-93551000D02*
X121977000Y-93551000D01*
X127674000Y-94831000D02*
X126971000Y-94831000D01*
X124489000Y-92671000D02*
X121335000Y-92671000D01*
X128439000Y-94431000D02*
X126971000Y-94431000D01*
X130788000Y-90590000D02*
X120672000Y-90590000D01*
X128675000Y-94271000D02*
X126971000Y-94271000D01*
X130527000Y-91791000D02*
X120933000Y-91791000D01*
X124489000Y-93071000D02*
X121592000Y-93071000D01*
X127767000Y-94791000D02*
X126971000Y-94791000D01*
X124489000Y-94911000D02*
X123988000Y-94911000D01*
X130554000Y-91711000D02*
X120906000Y-91711000D01*
X130580000Y-91631000D02*
X120880000Y-91631000D01*
X128730000Y-94231000D02*
X126971000Y-94231000D01*
X130192000Y-92551000D02*
X121268000Y-92551000D01*
%TO.C,C2*%
X116888000Y-93431000D02*
X114271000Y-93431000D01*
X111789000Y-93031000D02*
X108864000Y-93031000D01*
X111789000Y-94391000D02*
X110260000Y-94391000D01*
X117915000Y-91511000D02*
X108145000Y-91511000D01*
X118084000Y-90630000D02*
X107976000Y-90630000D01*
X117594000Y-92351000D02*
X108466000Y-92351000D01*
X117251000Y-92951000D02*
X114271000Y-92951000D01*
X118027000Y-91031000D02*
X108033000Y-91031000D01*
X111789000Y-94431000D02*
X110321000Y-94431000D01*
X111789000Y-93711000D02*
X109429000Y-93711000D01*
X116591000Y-93751000D02*
X114271000Y-93751000D01*
X118098000Y-90470000D02*
X107962000Y-90470000D01*
X118012000Y-91111000D02*
X108048000Y-91111000D01*
X117854000Y-91711000D02*
X108206000Y-91711000D01*
X111789000Y-92831000D02*
X108732000Y-92831000D01*
X111789000Y-94991000D02*
X111520000Y-94991000D01*
X117050000Y-93231000D02*
X114271000Y-93231000D01*
X117892000Y-91591000D02*
X108168000Y-91591000D01*
X113892000Y-95151000D02*
X112168000Y-95151000D01*
X117377000Y-92751000D02*
X114271000Y-92751000D01*
X117447000Y-92631000D02*
X114271000Y-92631000D01*
X117737000Y-92031000D02*
X108323000Y-92031000D01*
X117555000Y-92431000D02*
X108505000Y-92431000D01*
X118095000Y-90510000D02*
X107965000Y-90510000D01*
X116987000Y-93311000D02*
X114271000Y-93311000D01*
X117904000Y-91551000D02*
X108156000Y-91551000D01*
X117753000Y-91991000D02*
X108307000Y-91991000D01*
X111789000Y-94111000D02*
X109874000Y-94111000D01*
X111789000Y-94511000D02*
X110451000Y-94511000D01*
X115319000Y-94671000D02*
X114271000Y-94671000D01*
X111789000Y-93431000D02*
X109172000Y-93431000D01*
X111789000Y-93831000D02*
X109552000Y-93831000D01*
X111789000Y-92871000D02*
X108757000Y-92871000D01*
X114876000Y-94871000D02*
X114271000Y-94871000D01*
X115155000Y-94751000D02*
X114271000Y-94751000D01*
X111789000Y-94871000D02*
X111184000Y-94871000D01*
X111789000Y-93671000D02*
X109390000Y-93671000D01*
X114540000Y-94991000D02*
X114271000Y-94991000D01*
X118080000Y-90670000D02*
X107980000Y-90670000D01*
X111789000Y-93871000D02*
X109594000Y-93871000D01*
X115609000Y-94511000D02*
X114271000Y-94511000D01*
X117196000Y-93031000D02*
X114271000Y-93031000D01*
X111789000Y-94751000D02*
X110905000Y-94751000D01*
X118110000Y-90150000D02*
X107950000Y-90150000D01*
X111789000Y-92631000D02*
X108613000Y-92631000D01*
X116186000Y-94111000D02*
X114271000Y-94111000D01*
X111789000Y-94271000D02*
X110085000Y-94271000D01*
X111789000Y-94911000D02*
X111288000Y-94911000D01*
X118065000Y-90790000D02*
X107995000Y-90790000D01*
X111789000Y-93471000D02*
X109206000Y-93471000D01*
X116550000Y-93791000D02*
X114271000Y-93791000D01*
X115239000Y-94711000D02*
X114271000Y-94711000D01*
X111789000Y-93351000D02*
X109105000Y-93351000D01*
X118108000Y-90270000D02*
X107952000Y-90270000D01*
X115067000Y-94791000D02*
X114271000Y-94791000D01*
X111789000Y-93271000D02*
X109041000Y-93271000D01*
X116631000Y-93711000D02*
X114271000Y-93711000D01*
X115739000Y-94431000D02*
X114271000Y-94431000D01*
X111789000Y-92791000D02*
X108707000Y-92791000D01*
X117986000Y-91231000D02*
X108074000Y-91231000D01*
X111789000Y-93751000D02*
X109469000Y-93751000D01*
X111789000Y-92671000D02*
X108635000Y-92671000D01*
X117937000Y-91431000D02*
X108123000Y-91431000D01*
X111789000Y-94951000D02*
X111400000Y-94951000D01*
X117425000Y-92671000D02*
X114271000Y-92671000D01*
X118034000Y-90991000D02*
X108026000Y-90991000D01*
X111789000Y-93911000D02*
X109638000Y-93911000D01*
X117977000Y-91271000D02*
X108083000Y-91271000D01*
X111789000Y-93511000D02*
X109241000Y-93511000D01*
X111789000Y-94231000D02*
X110030000Y-94231000D01*
X111789000Y-94551000D02*
X110520000Y-94551000D01*
X115469000Y-94591000D02*
X114271000Y-94591000D01*
X118092000Y-90550000D02*
X107968000Y-90550000D01*
X114974000Y-94831000D02*
X114271000Y-94831000D01*
X118110000Y-90110000D02*
X107950000Y-90110000D01*
X115395000Y-94631000D02*
X114271000Y-94631000D01*
X116746000Y-93591000D02*
X114271000Y-93591000D01*
X118060000Y-90831000D02*
X108000000Y-90831000D01*
X116331000Y-93991000D02*
X114271000Y-93991000D01*
X111789000Y-94471000D02*
X110385000Y-94471000D01*
X114772000Y-94911000D02*
X114271000Y-94911000D01*
X117633000Y-92271000D02*
X108427000Y-92271000D01*
X116084000Y-94191000D02*
X114271000Y-94191000D01*
X117948000Y-91391000D02*
X108112000Y-91391000D01*
X117470000Y-92591000D02*
X108590000Y-92591000D01*
X111789000Y-93111000D02*
X108920000Y-93111000D01*
X117513000Y-92511000D02*
X108547000Y-92511000D01*
X113629000Y-95191000D02*
X112431000Y-95191000D01*
X111789000Y-92951000D02*
X108809000Y-92951000D01*
X117841000Y-91751000D02*
X108219000Y-91751000D01*
X111789000Y-92911000D02*
X108783000Y-92911000D01*
X117019000Y-93271000D02*
X114271000Y-93271000D01*
X117784000Y-91911000D02*
X108276000Y-91911000D01*
X116819000Y-93511000D02*
X114271000Y-93511000D01*
X118109000Y-90230000D02*
X107951000Y-90230000D01*
X116955000Y-93351000D02*
X114271000Y-93351000D01*
X111789000Y-93071000D02*
X108892000Y-93071000D01*
X116670000Y-93671000D02*
X114271000Y-93671000D01*
X116854000Y-93471000D02*
X114271000Y-93471000D01*
X117880000Y-91631000D02*
X108180000Y-91631000D01*
X111789000Y-93951000D02*
X109683000Y-93951000D01*
X111789000Y-94591000D02*
X110591000Y-94591000D01*
X116136000Y-94151000D02*
X114271000Y-94151000D01*
X117328000Y-92831000D02*
X114271000Y-92831000D01*
X111789000Y-94191000D02*
X109976000Y-94191000D01*
X118100000Y-90430000D02*
X107960000Y-90430000D01*
X118105000Y-90350000D02*
X107955000Y-90350000D01*
X111789000Y-92991000D02*
X108836000Y-92991000D01*
X118107000Y-90310000D02*
X107953000Y-90310000D01*
X117277000Y-92911000D02*
X114271000Y-92911000D01*
X117704000Y-92111000D02*
X108356000Y-92111000D01*
X111789000Y-95031000D02*
X111652000Y-95031000D01*
X118054000Y-90871000D02*
X108006000Y-90871000D01*
X111789000Y-94671000D02*
X110741000Y-94671000D01*
X115919000Y-94311000D02*
X114271000Y-94311000D01*
X111789000Y-93311000D02*
X109073000Y-93311000D01*
X117080000Y-93191000D02*
X114271000Y-93191000D01*
X111789000Y-93591000D02*
X109314000Y-93591000D01*
X114092000Y-95111000D02*
X111968000Y-95111000D01*
X111789000Y-93991000D02*
X109729000Y-93991000D01*
X118041000Y-90951000D02*
X108019000Y-90951000D01*
X111789000Y-92751000D02*
X108683000Y-92751000D01*
X115675000Y-94471000D02*
X114271000Y-94471000D01*
X117958000Y-91351000D02*
X108102000Y-91351000D01*
X115800000Y-94391000D02*
X114271000Y-94391000D01*
X111789000Y-93631000D02*
X109351000Y-93631000D01*
X117303000Y-92871000D02*
X114271000Y-92871000D01*
X111789000Y-94311000D02*
X110141000Y-94311000D01*
X118020000Y-91071000D02*
X108040000Y-91071000D01*
X117140000Y-93111000D02*
X114271000Y-93111000D01*
X117995000Y-91191000D02*
X108065000Y-91191000D01*
X111789000Y-93231000D02*
X109010000Y-93231000D01*
X116405000Y-85130354D02*
X115405000Y-85130354D01*
X111789000Y-93151000D02*
X108950000Y-93151000D01*
X111789000Y-94831000D02*
X111086000Y-94831000D01*
X111789000Y-94711000D02*
X110821000Y-94711000D01*
X111789000Y-94631000D02*
X110665000Y-94631000D01*
X117401000Y-92711000D02*
X114271000Y-92711000D01*
X117110000Y-93151000D02*
X114271000Y-93151000D01*
X117575000Y-92391000D02*
X108485000Y-92391000D01*
X116236000Y-94071000D02*
X114271000Y-94071000D01*
X118070000Y-90750000D02*
X107990000Y-90750000D01*
X117798000Y-91871000D02*
X108262000Y-91871000D01*
X111789000Y-94071000D02*
X109824000Y-94071000D01*
X111789000Y-93191000D02*
X108980000Y-93191000D01*
X117867000Y-91671000D02*
X108193000Y-91671000D01*
X118103000Y-90390000D02*
X107957000Y-90390000D01*
X114408000Y-95031000D02*
X114271000Y-95031000D01*
X115860000Y-94351000D02*
X114271000Y-94351000D01*
X117968000Y-91311000D02*
X108092000Y-91311000D01*
X118075000Y-90710000D02*
X107985000Y-90710000D01*
X116284000Y-94031000D02*
X114271000Y-94031000D01*
X111789000Y-93391000D02*
X109138000Y-93391000D01*
X111789000Y-92711000D02*
X108659000Y-92711000D01*
X116709000Y-93631000D02*
X114271000Y-93631000D01*
X117768000Y-91951000D02*
X108292000Y-91951000D01*
X117534000Y-92471000D02*
X108526000Y-92471000D01*
X118048000Y-90911000D02*
X108012000Y-90911000D01*
X117827000Y-91791000D02*
X108233000Y-91791000D01*
X116422000Y-93911000D02*
X114271000Y-93911000D01*
X111789000Y-94791000D02*
X110993000Y-94791000D01*
X117813000Y-91831000D02*
X108247000Y-91831000D01*
X117614000Y-92311000D02*
X108446000Y-92311000D01*
X116030000Y-94231000D02*
X114271000Y-94231000D01*
X117492000Y-92551000D02*
X108568000Y-92551000D01*
X116508000Y-93831000D02*
X114271000Y-93831000D01*
X117687000Y-92151000D02*
X108373000Y-92151000D01*
X117168000Y-93071000D02*
X114271000Y-93071000D01*
X115540000Y-94551000D02*
X114271000Y-94551000D01*
X117927000Y-91471000D02*
X108133000Y-91471000D01*
X116466000Y-93871000D02*
X114271000Y-93871000D01*
X118004000Y-91151000D02*
X108056000Y-91151000D01*
X115905000Y-84630354D02*
X115905000Y-85630354D01*
X117669000Y-92191000D02*
X108391000Y-92191000D01*
X117353000Y-92791000D02*
X114271000Y-92791000D01*
X111789000Y-94351000D02*
X110200000Y-94351000D01*
X116377000Y-93951000D02*
X114271000Y-93951000D01*
X115975000Y-94271000D02*
X114271000Y-94271000D01*
X118110000Y-90190000D02*
X107950000Y-90190000D01*
X111789000Y-93791000D02*
X109510000Y-93791000D01*
X117224000Y-92991000D02*
X114271000Y-92991000D01*
X118088000Y-90590000D02*
X107972000Y-90590000D01*
X111789000Y-94151000D02*
X109924000Y-94151000D01*
X116922000Y-93391000D02*
X114271000Y-93391000D01*
X117651000Y-92231000D02*
X108409000Y-92231000D01*
X114660000Y-94951000D02*
X114271000Y-94951000D01*
X117720000Y-92071000D02*
X108340000Y-92071000D01*
X111789000Y-94031000D02*
X109776000Y-94031000D01*
X116783000Y-93551000D02*
X114271000Y-93551000D01*
X111789000Y-93551000D02*
X109277000Y-93551000D01*
X111770000Y-85147460D02*
G75*
G03*
X114290000Y-85147460I1260000J-4962540D01*
G01*
%TO.C,C3*%
X127621000Y-72040000D02*
X128879000Y-72040000D01*
X127621000Y-70200000D02*
X128879000Y-70200000D01*
%TO.C,C4*%
X111860000Y-69365000D02*
X111860000Y-76605000D01*
X111860000Y-69365000D02*
X109120000Y-69365000D01*
X109120000Y-69365000D02*
X109120000Y-76605000D01*
X111860000Y-76605000D02*
X109120000Y-76605000D01*
%TO.C,D1*%
X108800000Y-67160000D02*
X108800000Y-64920000D01*
X105400000Y-64920000D02*
X105400000Y-67160000D01*
X108800000Y-64920000D02*
X104560000Y-64920000D01*
X109450000Y-66040000D02*
X108800000Y-66040000D01*
X105160000Y-64920000D02*
X105160000Y-67160000D01*
X104560000Y-64920000D02*
X104560000Y-67160000D01*
X105280000Y-64920000D02*
X105280000Y-67160000D01*
X103910000Y-66040000D02*
X104560000Y-66040000D01*
X104560000Y-67160000D02*
X108800000Y-67160000D01*
%TO.C,L1*%
X111590000Y-57150000D02*
G75*
G03*
X111590000Y-57150000I-4870000J0D01*
G01*
%TO.C,Q1*%
X105940000Y-70540000D02*
X102340000Y-70540000D01*
X102301522Y-70551522D02*
G75*
G03*
X104140000Y-74990000I1838478J-1838478D01*
G01*
X104140000Y-74990001D02*
G75*
G03*
X105978478Y-70551522I0J2600001D01*
G01*
%TO.C,Q2*%
X91440000Y-67430000D02*
X91440000Y-69970000D01*
X93980000Y-67430000D02*
X93980000Y-69970000D01*
X88860000Y-51540000D02*
X88860000Y-67430000D01*
X88860000Y-51540000D02*
X99100000Y-51540000D01*
X99100000Y-51540000D02*
X99100000Y-67430000D01*
X96520000Y-67430000D02*
X96520000Y-69970000D01*
X88860000Y-67430000D02*
X99100000Y-67430000D01*
%TO.C,R3*%
X78640000Y-60230000D02*
X78970000Y-60230000D01*
X78970000Y-66770000D02*
X78640000Y-66770000D01*
X81380000Y-66770000D02*
X81380000Y-60230000D01*
X81050000Y-66770000D02*
X81380000Y-66770000D01*
X81380000Y-60230000D02*
X81050000Y-60230000D01*
X78640000Y-66770000D02*
X78640000Y-60230000D01*
%TO.C,R4*%
X95350000Y-86900000D02*
X95020000Y-86900000D01*
X92610000Y-93440000D02*
X92610000Y-86900000D01*
X95020000Y-93440000D02*
X95350000Y-93440000D01*
X95350000Y-93440000D02*
X95350000Y-86900000D01*
X92610000Y-86900000D02*
X92940000Y-86900000D01*
X92940000Y-93440000D02*
X92610000Y-93440000D01*
%TO.C,R5*%
X97690000Y-86900000D02*
X97690000Y-93440000D01*
X98020000Y-86900000D02*
X97690000Y-86900000D01*
X100430000Y-86900000D02*
X100430000Y-93440000D01*
X100430000Y-93440000D02*
X100100000Y-93440000D01*
X97690000Y-93440000D02*
X98020000Y-93440000D01*
X100100000Y-86900000D02*
X100430000Y-86900000D01*
%TO.C,R6*%
X105510000Y-86900000D02*
X105510000Y-93440000D01*
X105510000Y-93440000D02*
X105180000Y-93440000D01*
X103100000Y-86900000D02*
X102770000Y-86900000D01*
X105180000Y-86900000D02*
X105510000Y-86900000D01*
X102770000Y-93440000D02*
X103100000Y-93440000D01*
X102770000Y-86900000D02*
X102770000Y-93440000D01*
%TO.C,U1*%
X158690000Y-58150000D02*
G75*
G03*
X158690000Y-56150000I0J1000000D01*
G01*
X194370000Y-59800000D02*
X194370000Y-54500000D01*
X158690000Y-59800000D02*
X194370000Y-59800000D01*
X194370000Y-54500000D02*
X158690000Y-54500000D01*
X158690000Y-54500000D02*
X158690000Y-56150000D01*
X158690000Y-58150000D02*
X158690000Y-59800000D01*
%TO.C,BT1*%
X135398211Y-76425371D02*
G75*
G03*
X139900000Y-79272000I8111801J7845391D01*
G01*
X139900000Y-57888000D02*
G75*
G03*
X135398211Y-60734629I3609996J-10691995D01*
G01*
X147120000Y-79272000D02*
G75*
G03*
X151621789Y-76425371I-3609996J10691995D01*
G01*
X151621789Y-60734629D02*
G75*
G03*
X147120000Y-57888000I-8111801J-7845391D01*
G01*
X139900000Y-82890000D02*
X139900000Y-79272000D01*
X151620000Y-60732700D02*
X151620000Y-64720000D01*
X149420000Y-66920000D02*
X151620000Y-64720000D01*
X147120000Y-54270000D02*
X147120000Y-57888000D01*
X135400000Y-76427300D02*
X135400000Y-60732700D01*
X149420000Y-70240000D02*
X151620000Y-72440000D01*
X141610000Y-54270000D02*
X139900000Y-54270000D01*
X139900000Y-57888000D02*
X139900000Y-54270000D01*
X145410000Y-82890000D02*
X147120000Y-82890000D01*
X149420000Y-66920000D02*
X149420000Y-70240000D01*
X151620000Y-72440000D02*
X151620000Y-76427300D01*
X145410000Y-54270000D02*
X147120000Y-54270000D01*
X141610000Y-82890000D02*
X139900000Y-82890000D01*
X147120000Y-79272000D02*
X147120000Y-82890000D01*
%TO.C,D2*%
X78540000Y-80560000D02*
X81480000Y-80560000D01*
X78540000Y-80680000D02*
X81480000Y-80680000D01*
X80010000Y-75000000D02*
X80010000Y-76020000D01*
X81480000Y-76020000D02*
X78540000Y-76020000D01*
X81480000Y-81460000D02*
X81480000Y-76020000D01*
X78540000Y-76020000D02*
X78540000Y-81460000D01*
X78540000Y-81460000D02*
X81480000Y-81460000D01*
X78540000Y-80440000D02*
X81480000Y-80440000D01*
X80010000Y-82480000D02*
X80010000Y-81460000D01*
%TO.C,J2*%
X87630000Y-82490000D02*
X88960000Y-82490000D01*
X88960000Y-82490000D02*
X88960000Y-83820000D01*
X83760000Y-82490000D02*
X83760000Y-95310000D01*
X83760000Y-95310000D02*
X88960000Y-95310000D01*
X86360000Y-85090000D02*
X88960000Y-85090000D01*
X83760000Y-82490000D02*
X86360000Y-82490000D01*
X86360000Y-82490000D02*
X86360000Y-85090000D01*
X88960000Y-85090000D02*
X88960000Y-95310000D01*
%TO.C,C5*%
X86460000Y-59840000D02*
X83720000Y-59840000D01*
X83720000Y-59840000D02*
X83720000Y-67080000D01*
X86460000Y-67080000D02*
X83720000Y-67080000D01*
X86460000Y-59840000D02*
X86460000Y-67080000D01*
%TO.C,R2*%
X103410000Y-78640000D02*
X109950000Y-78640000D01*
X109950000Y-81380000D02*
X109950000Y-81050000D01*
X103410000Y-81050000D02*
X103410000Y-81380000D01*
X109950000Y-78640000D02*
X109950000Y-78970000D01*
X103410000Y-78970000D02*
X103410000Y-78640000D01*
X103410000Y-81380000D02*
X109950000Y-81380000D01*
%TO.C,J1*%
X190440000Y-82490000D02*
X193040000Y-82490000D01*
X195640000Y-85090000D02*
X195640000Y-95310000D01*
X195640000Y-82490000D02*
X195640000Y-83820000D01*
X190440000Y-82490000D02*
X190440000Y-95310000D01*
X193040000Y-85090000D02*
X195640000Y-85090000D01*
X193040000Y-82490000D02*
X193040000Y-85090000D01*
X194310000Y-82490000D02*
X195640000Y-82490000D01*
X190440000Y-95310000D02*
X195640000Y-95310000D01*
%TO.C,C6*%
X121271000Y-74010000D02*
X122529000Y-74010000D01*
X121271000Y-75850000D02*
X122529000Y-75850000D01*
%TO.C,U5*%
X182930000Y-95430000D02*
X182930000Y-95175000D01*
X179070000Y-84910000D02*
X175210000Y-84910000D01*
X179070000Y-84910000D02*
X182930000Y-84910000D01*
X182930000Y-84910000D02*
X182930000Y-85165000D01*
X179070000Y-95430000D02*
X175210000Y-95430000D01*
X175210000Y-95430000D02*
X175210000Y-95175000D01*
X179070000Y-95430000D02*
X182930000Y-95430000D01*
X175210000Y-84910000D02*
X175210000Y-85165000D01*
X175210000Y-85165000D02*
X173395000Y-85165000D01*
%TO.C,R1*%
X129640000Y-61500000D02*
X129310000Y-61500000D01*
X126900000Y-61500000D02*
X127230000Y-61500000D01*
X127230000Y-68040000D02*
X126900000Y-68040000D01*
X129640000Y-68040000D02*
X129640000Y-61500000D01*
X129310000Y-68040000D02*
X129640000Y-68040000D01*
X126900000Y-68040000D02*
X126900000Y-61500000D01*
%TO.C,C7*%
X95341241Y-80665000D02*
X95341241Y-83592000D01*
X97701241Y-77225000D02*
X97701241Y-82025000D01*
X96181241Y-75959000D02*
X96181241Y-78585000D01*
X89970543Y-77310000D02*
X90770543Y-77310000D01*
X95501241Y-75700000D02*
X95501241Y-78585000D01*
X97141241Y-80665000D02*
X97141241Y-82644000D01*
X94380241Y-75545000D02*
X94380241Y-83705000D01*
X97261241Y-80665000D02*
X97261241Y-82532000D01*
X97941241Y-77591000D02*
X97941241Y-81659000D01*
X97021241Y-80665000D02*
X97021241Y-82749000D01*
X96901241Y-76405000D02*
X96901241Y-78585000D01*
X96581241Y-76181000D02*
X96581241Y-78585000D01*
X95261241Y-80665000D02*
X95261241Y-83610000D01*
X96621241Y-80665000D02*
X96621241Y-83043000D01*
X95221241Y-75631000D02*
X95221241Y-83619000D01*
X96981241Y-80665000D02*
X96981241Y-82781000D01*
X96261241Y-75998000D02*
X96261241Y-78585000D01*
X97261241Y-76718000D02*
X97261241Y-78585000D01*
X96101241Y-75921000D02*
X96101241Y-78585000D01*
X94540241Y-75548000D02*
X94540241Y-83702000D01*
X95741241Y-80665000D02*
X95741241Y-83475000D01*
X95861241Y-80665000D02*
X95861241Y-83430000D01*
X96741241Y-80665000D02*
X96741241Y-82963000D01*
X97141241Y-76606000D02*
X97141241Y-78585000D01*
X98301241Y-78396000D02*
X98301241Y-80854000D01*
X98181241Y-78073000D02*
X98181241Y-81177000D01*
X95661241Y-75748000D02*
X95661241Y-78585000D01*
X94580241Y-75549000D02*
X94580241Y-83701000D01*
X95861241Y-75820000D02*
X95861241Y-78585000D01*
X96021241Y-75885000D02*
X96021241Y-78585000D01*
X97741241Y-77280000D02*
X97741241Y-81970000D01*
X95581241Y-75723000D02*
X95581241Y-78585000D01*
X95101241Y-75608000D02*
X95101241Y-83642000D01*
X96541241Y-80665000D02*
X96541241Y-83094000D01*
X96301241Y-76019000D02*
X96301241Y-78585000D01*
X97341241Y-76799000D02*
X97341241Y-82451000D01*
X96061241Y-75903000D02*
X96061241Y-78585000D01*
X98261241Y-78279000D02*
X98261241Y-80971000D01*
X95501241Y-80665000D02*
X95501241Y-83550000D01*
X95301241Y-80665000D02*
X95301241Y-83601000D01*
X95381241Y-75668000D02*
X95381241Y-78585000D01*
X97021241Y-76501000D02*
X97021241Y-78585000D01*
X96461241Y-80665000D02*
X96461241Y-83142000D01*
X96061241Y-80665000D02*
X96061241Y-83347000D01*
X96661241Y-76233000D02*
X96661241Y-78585000D01*
X95781241Y-75790000D02*
X95781241Y-78585000D01*
X97061241Y-80665000D02*
X97061241Y-82715000D01*
X96581241Y-80665000D02*
X96581241Y-83069000D01*
X95821241Y-80665000D02*
X95821241Y-83446000D01*
X98101241Y-77894000D02*
X98101241Y-81356000D01*
X96541241Y-76156000D02*
X96541241Y-78585000D01*
X94420241Y-75545000D02*
X94420241Y-83705000D01*
X97101241Y-76570000D02*
X97101241Y-78585000D01*
X95541241Y-75711000D02*
X95541241Y-78585000D01*
X95741241Y-75775000D02*
X95741241Y-78585000D01*
X95781241Y-80665000D02*
X95781241Y-83460000D01*
X94500241Y-75546000D02*
X94500241Y-83704000D01*
X97101241Y-80665000D02*
X97101241Y-82680000D01*
X96341241Y-76041000D02*
X96341241Y-78585000D01*
X97381241Y-76841000D02*
X97381241Y-82409000D01*
X96821241Y-80665000D02*
X96821241Y-82905000D01*
X95981241Y-80665000D02*
X95981241Y-83382000D01*
X98021241Y-77735000D02*
X98021241Y-81515000D01*
X96021241Y-80665000D02*
X96021241Y-83365000D01*
X96941241Y-76436000D02*
X96941241Y-78585000D01*
X97821241Y-77397000D02*
X97821241Y-81853000D01*
X96221241Y-80665000D02*
X96221241Y-83272000D01*
X96381241Y-76063000D02*
X96381241Y-78585000D01*
X95421241Y-80665000D02*
X95421241Y-83572000D01*
X96421241Y-80665000D02*
X96421241Y-83165000D01*
X94940241Y-75583000D02*
X94940241Y-83667000D01*
X95981241Y-75868000D02*
X95981241Y-78585000D01*
X97581241Y-77069000D02*
X97581241Y-82181000D01*
X96381241Y-80665000D02*
X96381241Y-83187000D01*
X97541241Y-77021000D02*
X97541241Y-82229000D01*
X94700241Y-75557000D02*
X94700241Y-83693000D01*
X96701241Y-76260000D02*
X96701241Y-78585000D01*
X97621241Y-77120000D02*
X97621241Y-82130000D01*
X96461241Y-76108000D02*
X96461241Y-78585000D01*
X95141241Y-75615000D02*
X95141241Y-83635000D01*
X96981241Y-76469000D02*
X96981241Y-78585000D01*
X96421241Y-76085000D02*
X96421241Y-78585000D01*
X94820241Y-75568000D02*
X94820241Y-83682000D01*
X98061241Y-77812000D02*
X98061241Y-81438000D01*
X97221241Y-76680000D02*
X97221241Y-78585000D01*
X95901241Y-75835000D02*
X95901241Y-78585000D01*
X94740241Y-75560000D02*
X94740241Y-83690000D01*
X95341241Y-75658000D02*
X95341241Y-78585000D01*
X96741241Y-76287000D02*
X96741241Y-78585000D01*
X96221241Y-75978000D02*
X96221241Y-78585000D01*
X94660241Y-75554000D02*
X94660241Y-83696000D01*
X98381241Y-78677000D02*
X98381241Y-80573000D01*
X95020241Y-75595000D02*
X95020241Y-83655000D01*
X97901241Y-77523000D02*
X97901241Y-81727000D01*
X97501241Y-76974000D02*
X97501241Y-82276000D01*
X95461241Y-75689000D02*
X95461241Y-78585000D01*
X96701241Y-80665000D02*
X96701241Y-82990000D01*
X96661241Y-80665000D02*
X96661241Y-83017000D01*
X95701241Y-80665000D02*
X95701241Y-83488000D01*
X96781241Y-76316000D02*
X96781241Y-78585000D01*
X97981241Y-77661000D02*
X97981241Y-81589000D01*
X97661241Y-77171000D02*
X97661241Y-82079000D01*
X96301241Y-80665000D02*
X96301241Y-83231000D01*
X95060241Y-75601000D02*
X95060241Y-83649000D01*
X95941241Y-80665000D02*
X95941241Y-83399000D01*
X97181241Y-80665000D02*
X97181241Y-82608000D01*
X97301241Y-76758000D02*
X97301241Y-78585000D01*
X96501241Y-76132000D02*
X96501241Y-78585000D01*
X96141241Y-75939000D02*
X96141241Y-78585000D01*
X96501241Y-80665000D02*
X96501241Y-83118000D01*
X94780241Y-75564000D02*
X94780241Y-83686000D01*
X94980241Y-75588000D02*
X94980241Y-83662000D01*
X97421241Y-76884000D02*
X97421241Y-82366000D01*
X97781241Y-77338000D02*
X97781241Y-81912000D01*
X96781241Y-80665000D02*
X96781241Y-82934000D01*
X95261241Y-75640000D02*
X95261241Y-78585000D01*
X95701241Y-75762000D02*
X95701241Y-78585000D01*
X95661241Y-80665000D02*
X95661241Y-83502000D01*
X94460241Y-75545000D02*
X94460241Y-83705000D01*
X98341241Y-78527000D02*
X98341241Y-80723000D01*
X96141241Y-80665000D02*
X96141241Y-83311000D01*
X97181241Y-76642000D02*
X97181241Y-78585000D01*
X98461241Y-79092000D02*
X98461241Y-80158000D01*
X96621241Y-76207000D02*
X96621241Y-78585000D01*
X97061241Y-76535000D02*
X97061241Y-78585000D01*
X96181241Y-80665000D02*
X96181241Y-83291000D01*
X97461241Y-76928000D02*
X97461241Y-82322000D01*
X95821241Y-75804000D02*
X95821241Y-78585000D01*
X95581241Y-80665000D02*
X95581241Y-83527000D01*
X96861241Y-76375000D02*
X96861241Y-78585000D01*
X96821241Y-76345000D02*
X96821241Y-78585000D01*
X95621241Y-80665000D02*
X95621241Y-83514000D01*
X96261241Y-80665000D02*
X96261241Y-83252000D01*
X98421241Y-78857000D02*
X98421241Y-80393000D01*
X95461241Y-80665000D02*
X95461241Y-83561000D01*
X95181241Y-75623000D02*
X95181241Y-83627000D01*
X96101241Y-80665000D02*
X96101241Y-83329000D01*
X96341241Y-80665000D02*
X96341241Y-83209000D01*
X95901241Y-80665000D02*
X95901241Y-83415000D01*
X95541241Y-80665000D02*
X95541241Y-83539000D01*
X97861241Y-77459000D02*
X97861241Y-81791000D01*
X94620241Y-75551000D02*
X94620241Y-83699000D01*
X95421241Y-75678000D02*
X95421241Y-78585000D01*
X94860241Y-75573000D02*
X94860241Y-83677000D01*
X98221241Y-78172000D02*
X98221241Y-81078000D01*
X94900241Y-75577000D02*
X94900241Y-83673000D01*
X95301241Y-75649000D02*
X95301241Y-78585000D01*
X97221241Y-80665000D02*
X97221241Y-82570000D01*
X97301241Y-80665000D02*
X97301241Y-82492000D01*
X96861241Y-80665000D02*
X96861241Y-82875000D01*
X96901241Y-80665000D02*
X96901241Y-82845000D01*
X95621241Y-75736000D02*
X95621241Y-78585000D01*
X96941241Y-80665000D02*
X96941241Y-82814000D01*
X95941241Y-75851000D02*
X95941241Y-78585000D01*
X98141241Y-77980000D02*
X98141241Y-81270000D01*
X90370543Y-76910000D02*
X90370543Y-77710000D01*
X95381241Y-80665000D02*
X95381241Y-83582000D01*
X98500241Y-79625000D02*
G75*
G03*
X98500241Y-79625000I-4120000J0D01*
G01*
%TO.C,U2*%
X122030000Y-72450000D02*
X122030000Y-62170000D01*
X122030000Y-62170000D02*
X120380000Y-62170000D01*
X116730000Y-72450000D02*
X122030000Y-72450000D01*
X116730000Y-62170000D02*
X116730000Y-72450000D01*
X118380000Y-62170000D02*
X116730000Y-62170000D01*
X118380000Y-62170000D02*
G75*
G03*
X120380000Y-62170000I1000000J0D01*
G01*
%TD*%
M02*
