0
SECTION
2
HEADER
9
$INSUNITS
70
4
9
$ACADVER
1
AC1014
9
$HANDSEED
5
FFFF
0
ENDSEC
0
SECTION
2
TABLES
0
TABLE
2
VPORT
5
8
100
AcDbSymbolTable
0
ENDTAB
0
TABLE
2
LTYPE
5
5
100
AcDbSymbolTable
0
LTYPE
5
14
100
AcDbSymbolTableRecord
100
AcDbLinetypeTableRecord
2
BYBLOCK
70
0
0
LTYPE
5
15
100
AcDbSymbolTableRecord
100
AcDbLinetypeTableRecord
2
BYLAYER
70
0
0
ENDTAB
0
TABLE
2
LAYER
5
2
100
AcDbSymbolTable
70
2
0
LAYER
5
50
100
AcDbSymbolTableRecord
100
AcDbLayerTableRecord
2
0
70
0
6
CONTINUOUS
0
ENDTAB
0
TABLE
2
STYLE
5
3
100
AcDbSymbolTable
70
1
0
STYLE
5
11
100
AcDbSymbolTableRecord
100
AcDbTextStyleTableRecord
2
STANDARD
70
0
0
ENDTAB
0
TABLE
2
VIEW
5
6
100
AcDbSymbolTable
70
0
0
ENDTAB
0
TABLE
2
UCS
5
7
100
AcDbSymbolTable
70
0
0
ENDTAB
0
TABLE
2
APPID
5
9
100
AcDbSymbolTable
70
2
0
APPID
5
12
100
AcDbSymbolTableRecord
100
AcDbRegAppTableRecord
2
ACAD
70
0
0
ENDTAB
0
TABLE
2
DIMSTYLE
5
A
100
AcDbSymbolTable
70
1
0
ENDTAB
0
TABLE
2
BLOCK_RECORD
5
1
100
AcDbSymbolTable
70
1
0
BLOCK_RECORD
5
1F
100
AcDbSymbolTableRecord
100
AcDbBlockTableRecord
2
*MODEL_SPACE
0
BLOCK_RECORD
5
1B
100
AcDbSymbolTableRecord
100
AcDbBlockTableRecord
2
*PAPER_SPACE
0
ENDTAB
0
ENDSEC
0
SECTION
2
BLOCKS
0
BLOCK
5
20
100
AcDbEntity
100
AcDbBlockBegin
2
*MODEL_SPACE
0
ENDBLK
5
21
100
AcDbEntity
100
AcDbBlockEnd
0
BLOCK
5
1C
100
AcDbEntity
100
AcDbBlockBegin
2
*PAPER_SPACE
0
ENDBLK
5
1D
100
AcDbEntity
100
AcDbBlockEnd
0
ENDSEC
0
SECTION
2
ENTITIES
0
LINE
5
100
100
AcDbEntity
8
0
100
AcDbLine
10
123.19000000000001
20
0
30
0
11
3.8099999999999845
21
0
31
0
0
ARC
5
101
100
AcDbEntity
8
0
100
AcDbCircle
10
3.8100000000000023
20
-3.8100000000000023
30
0
40
3.8100000000000023
210
0
220
0
230
1
100
AcDbArc
50
90.00000000000027
51
180
0
LINE
5
102
100
AcDbEntity
8
0
100
AcDbLine
10
0
20
-3.8100000000000023
30
0
11
0
21
-41.910000000000011
31
0
0
ARC
5
103
100
AcDbEntity
8
0
100
AcDbCircle
10
3.8099999999999978
20
-41.910000000000011
30
0
40
3.8099999999999978
210
0
220
0
230
1
100
AcDbArc
50
180
51
270
0
LINE
5
104
100
AcDbEntity
8
0
100
AcDbLine
10
3.8099999999999978
20
-45.719999999999999
30
0
11
123.19000000000003
21
-45.719999999999999
31
0
0
ARC
5
105
100
AcDbEntity
8
0
100
AcDbCircle
10
123.19000000000003
20
-41.910000000000011
30
0
40
3.8099999999999934
210
0
220
0
230
1
100
AcDbArc
50
-90
51
0
0
ARC
5
106
100
AcDbEntity
8
0
100
AcDbCircle
10
123.19000000000001
20
-3.8100000000000023
30
0
40
3.8100000000000023
210
0
220
-0
230
1
100
AcDbArc
50
0
51
90.000000000000213
0
LINE
5
107
100
AcDbEntity
8
0
100
AcDbLine
10
127.00000000000003
20
-41.910000000000011
30
0
11
127.00000000000001
21
-3.8099999999999934
31
0
0
LINE
5
108
100
AcDbEntity
8
0
100
AcDbLine
10
63.500000000000014
20
-45.719999999999999
30
0
11
63.5
21
0
31
0
0
LWPOLYLINE
5
109
100
AcDbEntity
8
0
100
AcDbPolyline
90
8
70
1
43
0.0
10
59.929999999999986
20
-6.7499999999999938
10
67.069999999999993
20
-6.7499999999999938
42
0.41421356237309664
10
68.069999999999993
20
-5.7499999999999938
10
68.069999999999993
20
-4.4099999999999948
42
0.41421356237309664
10
67.069999999999993
20
-3.409999999999993
10
59.929999999999986
20
-3.409999999999993
42
0.41421356237309664
10
58.929999999999993
20
-4.4099999999999948
10
58.929999999999993
20
-5.749999999999992
42
0.41421356237309664
0
LINE
5
110
100
AcDbEntity
8
0
100
AcDbLine
10
68.069999999999993
20
-6.7499999999999973
30
0
11
58.929999999999993
21
-3.4099999999999975
31
0
0
LINE
5
111
100
AcDbEntity
8
0
100
AcDbLine
10
58.929999999999993
20
-6.7500000000000027
30
0
11
68.069999999999993
21
-3.4099999999999935
31
0
0
LINE
5
112
100
AcDbEntity
8
0
100
AcDbLine
10
112.23000000000002
20
-29.149999999999999
30
0
11
98.830000000000027
21
-29.149999999999999
31
0
0
LINE
5
113
100
AcDbEntity
8
0
100
AcDbLine
10
98.830000000000027
20
-29.149999999999999
30
0
11
98.830000000000027
21
-16.649999999999999
31
0
0
LINE
5
114
100
AcDbEntity
8
0
100
AcDbLine
10
98.830000000000027
20
-16.649999999999999
30
0
11
112.23000000000002
21
-16.649999999999999
31
0
0
LINE
5
115
100
AcDbEntity
8
0
100
AcDbLine
10
112.23000000000002
20
-16.649999999999999
30
0
11
112.23000000000002
21
-29.149999999999999
31
0
0
LINE
5
116
100
AcDbEntity
8
0
100
AcDbLine
10
112.23000000000002
20
-29.149999999999999
30
0
11
98.830000000000027
21
-16.649999999999999
31
0
0
LINE
5
117
100
AcDbEntity
8
0
100
AcDbLine
10
98.830000000000027
20
-29.149999999999999
30
0
11
112.23000000000002
21
-16.649999999999999
31
0
0
CIRCLE
5
118
100
AcDbEntity
8
0
100
AcDbCircle
10
105.53000000000003
20
-22.899999999999999
30
0
40
3.5000000000000004
210
0
220
0
230
1
0
LINE
5
119
100
AcDbEntity
8
0
100
AcDbLine
10
3.8100000000000023
20
1.7763568394002505e-14
30
-5.1324947352265591e-15
11
123.19
21
1.7763568394002505e-14
31
-5.1324947352265591e-15
0
LWPOLYLINE
5
120
100
AcDbEntity
8
0
100
AcDbPolyline
90
5
70
1
43
0.0
10
82.649999999999991
20
-22.339999999999982
10
85.649999999999977
20
-22.339999999999982
10
88.649999999999977
20
-22.339999999999982
10
88.649999999999977
20
-16.339999999999986
10
82.649999999999991
20
-16.339999999999986
0
LWPOLYLINE
5
121
100
AcDbEntity
8
0
100
AcDbPolyline
90
5
70
1
43
0.0
10
111.52999999999999
20
-17.099999999999991
10
99.530000000000001
20
-17.099999999999991
10
99.530000000000001
20
-28.699999999999992
10
110.52999999999997
20
-28.699999999999992
10
111.52999999999999
20
-27.599999999999987
0
LINE
5
122
100
AcDbEntity
8
0
100
AcDbLine
10
127
20
-3.8100000000000023
30
-4.6659043047514145e-15
11
127
21
-41.909999999999989
31
0
0
LINE
5
123
100
AcDbEntity
8
0
100
AcDbLine
10
0
20
-41.909999999999989
30
0
11
0
21
-3.8100000000000023
31
-4.6659043047514145e-15
0
LINE
5
124
100
AcDbEntity
8
0
100
AcDbLine
10
108.52999999999997
20
-22.899999999999984
30
-2.3280535651791193e-15
11
102.53
21
-22.899999999999984
31
-2.3280535651791193e-15
0
ARC
5
125
100
AcDbEntity
8
0
100
AcDbCircle
10
-123.19
20
-3.8100000000000023
30
5.1324947352265567e-15
40
3.81000000000002
210
0
220
-1.2246467991473547e-16
230
-1
100
AcDbArc
50
90
51
180.00001503223623
0
LWPOLYLINE
5
126
100
AcDbEntity
8
0
100
AcDbPolyline
90
5
70
1
43
0.0
10
82.649999999999991
20
-23.95999999999999
10
82.649999999999991
20
-29.959999999999987
10
85.649999999999977
20
-29.959999999999987
10
88.649999999999977
20
-29.959999999999987
10
88.649999999999977
20
-23.95999999999999
0
CIRCLE
5
127
100
AcDbEntity
8
0
100
AcDbCircle
10
-105.52999999999997
20
-22.899999999999984
30
5.132494735226556e-15
40
3.0000000000000004
210
0
220
-1.2246467991473532e-16
230
-1
0
CIRCLE
5
128
100
AcDbEntity
8
0
100
AcDbCircle
10
-85.649999999999977
20
-26.959999999999987
30
5.132494735226556e-15
40
2.0155599999999998
210
0
220
-1.2246467991473532e-16
230
-1
0
ARC
5
129
100
AcDbEntity
8
0
100
AcDbCircle
10
-3.8100000000000023
20
-3.8100000000000023
30
5.132494735226556e-15
40
3.8100000000000023
210
-0
220
-1.2246467991473532e-16
230
-1
100
AcDbArc
50
0
51
90
0
ARC
5
130
100
AcDbEntity
8
0
100
AcDbCircle
10
-123.19
20
-41.909999999999989
30
5.1324947352265441e-15
40
3.8099999999999912
210
-1.5197456884980269e-31
220
-1.2246467991473549e-16
230
-1
100
AcDbArc
50
179.99998496776377
51
270
0
LWPOLYLINE
5
131
100
AcDbEntity
8
0
100
AcDbPolyline
90
9
70
1
43
0.0
10
57.499999999999986
20
-7.2299999999999898
10
57.850000000000001
20
-7.5799999999999912
10
65.950000000000003
20
-7.5799999999999912
10
66.249999999999986
20
-7.2799999999999976
10
66.549999999999997
20
-7.5799999999999912
10
69.5
20
-7.5799999999999912
10
69.5
20
-2.5799999999999912
10
57.850000000000001
20
-2.5799999999999912
10
57.499999999999986
20
-2.9299999999999926
0
LINE
5
132
100
AcDbEntity
8
0
100
AcDbLine
10
105.52999999999997
20
-25.899999999999981
30
-1.9606595254349139e-15
11
105.52999999999997
21
-19.899999999999984
31
-2.695447604923326e-15
0
CIRCLE
5
133
100
AcDbEntity
8
0
100
AcDbCircle
10
-85.649999999999977
20
-19.339999999999982
30
5.1324947352265552e-15
40
2.0155599999999998
210
0
220
-1.2246467991473532e-16
230
-1
0
LINE
5
134
100
AcDbEntity
8
0
100
AcDbLine
10
123.19
20
-45.719999999999992
30
4.6659043047514165e-16
11
3.8100000000000023
21
-45.719999999999992
31
4.6659043047514165e-16
0
ARC
5
135
100
AcDbEntity
8
0
100
AcDbCircle
10
-3.8100000000000023
20
-41.909999999999989
30
5.1324947352265544e-15
40
3.8100000000000023
210
-0
220
-1.2246467991473527e-16
230
-1
100
AcDbArc
50
-90
51
0
0
CIRCLE
5
136
100
AcDbEntity
8
0
100
AcDbCircle
10
85.649999999999977
20
-26.959999999999987
30
-1.8308469647252933e-15
40
1.754999999999993
210
0
220
0
230
1
0
CIRCLE
5
137
100
AcDbEntity
8
0
100
AcDbCircle
10
85.649999999999977
20
-19.339999999999982
30
-2.7640278256755766e-15
40
1.7550000000000032
210
0
220
0
230
1
0
LWPOLYLINE
5
138
100
AcDbEntity
8
0
100
AcDbPolyline
90
8
70
1
43
0.0
10
0
20
-3.8100000000000023
10
0
20
-41.910000000000011
42
0.41421356237309531
10
3.8100000000000023
20
-45.720000000000013
10
123.19000000000003
20
-45.719999999999999
42
0.41421356237309642
10
127.00000000000003
20
-41.910000000000011
10
127.00000000000001
20
-3.8099999999999938
42
0.41421356237309354
10
123.19
20
0
10
3.8099999999999845
20
0
42
0.41421356237309365
0
LWPOLYLINE
5
139
100
AcDbEntity
8
0
100
AcDbPolyline
90
8
70
1
43
0.0
10
-6.0000000000000009
20
-41.910000000000011
10
-5.9999999999999964
20
-3.8100000000000032
42
-0.41421356237309453
10
3.8099999999999845
20
5.9999999999999964
10
123.18999999999996
20
6.0000000000000036
42
-0.41421356237309548
10
133
20
-3.8099999999999934
10
133.00000000000006
20
-41.910000000000011
42
-0.41421356237309553
10
123.19000000000003
20
-51.720000000000006
10
3.8099999999999996
20
-51.720000000000006
42
-0.41421356237309503
0
ENDSEC
0
SECTION
2
OBJECTS
0
DICTIONARY
5
C
100
AcDbDictionary
3
ACAD_GROUP
350
D
3
ACAD_MLINESTYLE
350
17
0
DICTIONARY
5
D
100
AcDbDictionary
0
DICTIONARY
5
1A
330
C
100
AcDbDictionary
0
DICTIONARY
5
17
100
AcDbDictionary
0
ENDSEC
0
EOF
