M48
; DRILL file {KiCad (6.0.0)} date Sat Jan 22 21:07:18 2022
; FORMAT={-:-/ absolute / inch / decimal}
; #@! TF.CreationDate,2022-01-22T21:07:18-08:00
; #@! TF.GenerationSoftware,Kicad,Pcbnew,(6.0.0)
; #@! TF.FileFunction,Plated,1,2,PTH
FMAT,2
INCH
; #@! TA.AperFunction,Plated,PTH,ViaDrill
T1C0.0157
; #@! TA.AperFunction,Plated,PTH,ComponentDrill
T2C0.0236
; #@! TA.AperFunction,Plated,PTH,ComponentDrill
T3C0.0295
; #@! TA.AperFunction,Plated,PTH,ComponentDrill
T4C0.0315
; #@! TA.AperFunction,Plated,PTH,ComponentDrill
T5C0.0394
; #@! TA.AperFunction,Plated,PTH,ComponentDrill
T6C0.0629
; #@! TA.AperFunction,Plated,PTH,ComponentDrill
T7C0.0866
%
G90
G05
T1
X2.2Y-3.675
X2.2Y-3.9
X2.2438Y-3.45
X2.45Y-4.1
X2.8Y-4.05
X2.9Y-4.6
X3.3Y-3.9
X3.35Y-4.05
X3.35Y-4.6
X3.3543Y-3.7
X3.5472Y-3.2965
X3.625Y-3.325
X3.7Y-4.05
X3.725Y-3.25
X3.8Y-4.6
X4.2Y-3.9
X4.2543Y-3.7
X4.45Y-3.2
X4.45Y-4.6
X5.0Y-4.05
X5.1Y-4.6
X5.2Y-3.3108
X5.5Y-3.9
X5.55Y-4.05
X5.55Y-4.6
X5.5543Y-3.7
X5.9Y-4.05
X6.0Y-4.6
X6.075Y-3.2434
X6.35Y-4.05
X6.35Y-4.475
X6.3937Y-3.9937
X6.4359Y-4.6394
X6.7Y-3.65
X6.7402Y-4.4002
X6.85Y-4.45
T2
X4.3875Y-3.9
X4.5125Y-3.9
T3
X2.7Y-4.6
X2.75Y-4.6
X2.8Y-4.6
X3.0Y-4.6
X3.05Y-4.6
X3.1Y-4.6
X3.6Y-4.6
X3.65Y-4.6
X3.7Y-4.6
X3.9Y-4.6
X3.95Y-4.6
X4.0Y-4.6
X4.4Y-4.2
X4.45Y-4.2
X4.5Y-4.2
X4.9Y-4.6
X4.95Y-4.6
X5.0Y-4.6
X5.2Y-4.6
X5.25Y-4.6
X5.3Y-4.6
X5.8Y-4.6
X5.85Y-4.6
X5.9Y-4.6
X6.1Y-4.6
X6.15Y-4.6
X6.2Y-4.6
T4
X2.05Y-3.4
X2.05Y-3.5
X2.05Y-3.6
X2.05Y-3.7
X2.05Y-3.8
X2.05Y-3.9
X2.05Y-4.0
X2.05Y-4.1
X2.3Y-3.1
X2.3Y-3.1984
X2.35Y-3.4
X2.35Y-3.5
X2.35Y-3.6
X2.35Y-3.7
X2.35Y-3.8
X2.35Y-3.9
X2.35Y-4.0
X2.35Y-4.1
X2.4Y-3.1
X2.4Y-3.1984
X2.55Y-3.1
X2.55Y-3.4
X2.55Y-4.2461
X2.55Y-4.5461
X2.65Y-3.1
X2.65Y-3.4
X2.75Y-3.1
X2.75Y-3.4
X2.75Y-4.4
X2.85Y-3.1
X2.85Y-3.4
X2.95Y-3.1
X2.95Y-3.4
X3.05Y-3.1
X3.05Y-3.4
X3.05Y-4.4
X3.15Y-3.1
X3.15Y-3.4
X3.25Y-3.1
X3.25Y-3.4
X3.25Y-4.2461
X3.25Y-4.5461
X3.45Y-3.1
X3.45Y-3.4
X3.45Y-4.2461
X3.45Y-4.5461
X3.55Y-3.1
X3.55Y-3.4
X3.65Y-3.1
X3.65Y-3.4
X3.65Y-4.4
X3.75Y-3.1
X3.75Y-3.4
X3.85Y-3.1
X3.85Y-3.4
X3.95Y-3.1
X3.95Y-3.4
X3.95Y-4.4
X4.05Y-3.1
X4.05Y-3.4
X4.15Y-3.1
X4.15Y-3.4
X4.15Y-4.2461
X4.15Y-4.5461
X4.275Y-3.1
X4.275Y-3.1984
X4.3Y-4.45
X4.45Y-3.4
X4.45Y-3.7
X4.6Y-4.45
X4.625Y-3.1
X4.625Y-3.1984
X4.75Y-3.1
X4.75Y-3.4
X4.75Y-4.2461
X4.75Y-4.5461
X4.85Y-3.1
X4.85Y-3.4
X4.95Y-3.1
X4.95Y-3.4
X4.95Y-4.4
X5.05Y-3.1
X5.05Y-3.4
X5.15Y-3.1
X5.15Y-3.4
X5.25Y-3.1
X5.25Y-3.4
X5.25Y-4.4
X5.35Y-3.1
X5.35Y-3.4
X5.45Y-3.1
X5.45Y-3.4
X5.45Y-4.25
X5.45Y-4.55
X5.65Y-3.1
X5.65Y-3.4
X5.65Y-4.25
X5.65Y-4.55
X5.75Y-3.1
X5.75Y-3.4
X5.85Y-3.1
X5.85Y-3.4
X5.85Y-4.4
X5.95Y-3.1
X5.95Y-3.4
X6.05Y-3.1
X6.05Y-3.4
X6.15Y-3.1
X6.15Y-3.4
X6.15Y-4.4
X6.25Y-3.1
X6.25Y-3.4
X6.35Y-3.1
X6.35Y-3.4
X6.35Y-4.25
X6.35Y-4.55
X6.5Y-3.1
X6.5Y-3.1984
X6.55Y-3.4
X6.55Y-3.5
X6.55Y-3.6
X6.55Y-3.7
X6.55Y-3.8
X6.55Y-3.9
X6.55Y-4.0
X6.55Y-4.1
X6.6Y-3.1
X6.6Y-3.1984
X6.85Y-3.4
X6.85Y-3.5
X6.85Y-3.6
X6.85Y-3.7
X6.85Y-3.8
X6.85Y-3.9
X6.85Y-4.0
X6.85Y-4.1
T5
X2.3Y-4.3
X2.3Y-4.4
X2.3Y-4.5
X2.3Y-4.6
X2.3Y-4.7
X2.4Y-4.3
X2.4Y-4.4
X2.4Y-4.5
X2.4Y-4.6
X2.4Y-4.7
X6.5Y-4.3
X6.5Y-4.4
X6.5Y-4.5
X6.5Y-4.6
X6.5Y-4.7
X6.6Y-4.3
X6.6Y-4.4
X6.6Y-4.5
X6.6Y-4.6
X6.6Y-4.7
T6
X2.6737Y-3.7229
X2.6737Y-3.9
X2.6737Y-4.0771
X2.7426Y-3.5851
X2.7426Y-4.2149
X2.9Y-3.5457
X2.9Y-4.2543
X3.0574Y-3.5851
X3.0574Y-4.2149
X3.1263Y-3.7229
X3.1263Y-3.9
X3.1263Y-4.0771
X3.5737Y-3.7229
X3.5737Y-3.9
X3.5737Y-4.0771
X3.6426Y-3.5851
X3.6426Y-4.2149
X3.8Y-3.5457
X3.8Y-4.2543
X3.9574Y-3.5851
X3.9574Y-4.2149
X4.0263Y-3.7229
X4.0263Y-3.9
X4.0263Y-4.0771
X4.8737Y-3.7229
X4.8737Y-3.9
X4.8737Y-4.0771
X4.9426Y-3.5851
X4.9426Y-4.2149
X5.1Y-3.5457
X5.1Y-4.2543
X5.2574Y-3.5851
X5.2574Y-4.2149
X5.3263Y-3.7229
X5.3263Y-3.9
X5.3263Y-4.0771
X5.7737Y-3.7229
X5.7737Y-3.9
X5.7737Y-4.0771
X5.8426Y-3.5851
X5.8426Y-4.2149
X6.0Y-3.5457
X6.0Y-4.2543
X6.1574Y-3.5851
X6.1574Y-4.2149
X6.2263Y-3.7229
X6.2263Y-3.9
X6.2263Y-4.0771
T7
X2.1Y-3.15
X2.1Y-4.65
X6.8Y-3.15
X6.8Y-4.65
T0
M30
