%TF.GenerationSoftware,KiCad,Pcbnew,(6.0.0)*%
%TF.CreationDate,2022-01-22T21:07:16-08:00*%
%TF.ProjectId,nixie_tube_board,6e697869-655f-4747-9562-655f626f6172,rev?*%
%TF.SameCoordinates,Original*%
%TF.FileFunction,Soldermask,Top*%
%TF.FilePolarity,Negative*%
%FSLAX46Y46*%
G04 Gerber Fmt 4.6, Leading zero omitted, Abs format (unit mm)*
G04 Created by KiCad (PCBNEW (6.0.0)) date 2022-01-22 21:07:16*
%MOMM*%
%LPD*%
G01*
G04 APERTURE LIST*
%ADD10C,4.998720*%
%ADD11C,2.397760*%
%ADD12O,1.050000X1.500000*%
%ADD13R,1.050000X1.500000*%
%ADD14C,1.600000*%
%ADD15O,1.600000X1.600000*%
%ADD16R,1.600000X1.600000*%
%ADD17C,4.400000*%
%ADD18C,1.107440*%
%ADD19O,1.700000X1.700000*%
%ADD20R,1.700000X1.700000*%
G04 APERTURE END LIST*
D10*
%TO.C,N1*%
X152400000Y-99060000D03*
D11*
X158148020Y-103558340D03*
X148402040Y-107058460D03*
X146651980Y-103558340D03*
X146651980Y-99060000D03*
X146651980Y-94561660D03*
X148402040Y-91061540D03*
X152400000Y-90060780D03*
X156397960Y-91061540D03*
X158148020Y-94561660D03*
X158148020Y-99060000D03*
X156397960Y-107058460D03*
X152400000Y-108059220D03*
%TD*%
D10*
%TO.C,N2*%
X129540000Y-99060000D03*
D11*
X135288020Y-103558340D03*
X125542040Y-107058460D03*
X123791980Y-103558340D03*
X123791980Y-99060000D03*
X123791980Y-94561660D03*
X125542040Y-91061540D03*
X129540000Y-90060780D03*
X133537960Y-91061540D03*
X135288020Y-94561660D03*
X135288020Y-99060000D03*
X133537960Y-107058460D03*
X129540000Y-108059220D03*
%TD*%
D10*
%TO.C,N3*%
X96520000Y-99060000D03*
D11*
X102268020Y-103558340D03*
X92522040Y-107058460D03*
X90771980Y-103558340D03*
X90771980Y-99060000D03*
X90771980Y-94561660D03*
X92522040Y-91061540D03*
X96520000Y-90060780D03*
X100517960Y-91061540D03*
X102268020Y-94561660D03*
X102268020Y-99060000D03*
X100517960Y-107058460D03*
X96520000Y-108059220D03*
%TD*%
%TO.C,N4*%
X73660000Y-108059220D03*
X77657960Y-107058460D03*
X79408020Y-99060000D03*
X79408020Y-94561660D03*
X77657960Y-91061540D03*
X73660000Y-90060780D03*
X69662040Y-91061540D03*
X67911980Y-94561660D03*
X67911980Y-99060000D03*
X67911980Y-103558340D03*
X69662040Y-107058460D03*
X79408020Y-103558340D03*
D10*
X73660000Y-99060000D03*
%TD*%
D12*
%TO.C,Q1*%
X147320000Y-116840000D03*
X148590000Y-116840000D03*
D13*
X149860000Y-116840000D03*
%TD*%
D12*
%TO.C,Q5*%
X154940000Y-116840000D03*
X156210000Y-116840000D03*
D13*
X157480000Y-116840000D03*
%TD*%
D14*
%TO.C,R2*%
X143510000Y-115570000D03*
D15*
X143510000Y-107950000D03*
%TD*%
D14*
%TO.C,R10*%
X138430000Y-115570000D03*
D15*
X138430000Y-107950000D03*
%TD*%
D16*
%TO.C,U2*%
X59690000Y-104140000D03*
D15*
X59690000Y-101600000D03*
X59690000Y-99060000D03*
X59690000Y-96520000D03*
X59690000Y-93980000D03*
X59690000Y-91440000D03*
X59690000Y-88900000D03*
X59690000Y-86360000D03*
X52070000Y-86360000D03*
X52070000Y-88900000D03*
X52070000Y-91440000D03*
X52070000Y-93980000D03*
X52070000Y-96520000D03*
X52070000Y-99060000D03*
X52070000Y-101600000D03*
X52070000Y-104140000D03*
%TD*%
D16*
%TO.C,U3*%
X161290000Y-78740000D03*
D15*
X158750000Y-78740000D03*
X156210000Y-78740000D03*
X153670000Y-78740000D03*
X151130000Y-78740000D03*
X148590000Y-78740000D03*
X146050000Y-78740000D03*
X143510000Y-78740000D03*
X143510000Y-86360000D03*
X146050000Y-86360000D03*
X148590000Y-86360000D03*
X151130000Y-86360000D03*
X153670000Y-86360000D03*
X156210000Y-86360000D03*
X158750000Y-86360000D03*
X161290000Y-86360000D03*
%TD*%
D16*
%TO.C,U4*%
X138430000Y-78740000D03*
D15*
X135890000Y-78740000D03*
X133350000Y-78740000D03*
X130810000Y-78740000D03*
X128270000Y-78740000D03*
X125730000Y-78740000D03*
X123190000Y-78740000D03*
X120650000Y-78740000D03*
X120650000Y-86360000D03*
X123190000Y-86360000D03*
X125730000Y-86360000D03*
X128270000Y-86360000D03*
X130810000Y-86360000D03*
X133350000Y-86360000D03*
X135890000Y-86360000D03*
X138430000Y-86360000D03*
%TD*%
D16*
%TO.C,U5*%
X105410000Y-78740000D03*
D15*
X102870000Y-78740000D03*
X100330000Y-78740000D03*
X97790000Y-78740000D03*
X95250000Y-78740000D03*
X92710000Y-78740000D03*
X90170000Y-78740000D03*
X87630000Y-78740000D03*
X87630000Y-86360000D03*
X90170000Y-86360000D03*
X92710000Y-86360000D03*
X95250000Y-86360000D03*
X97790000Y-86360000D03*
X100330000Y-86360000D03*
X102870000Y-86360000D03*
X105410000Y-86360000D03*
%TD*%
D16*
%TO.C,U6*%
X82550000Y-78740000D03*
D15*
X80010000Y-78740000D03*
X77470000Y-78740000D03*
X74930000Y-78740000D03*
X72390000Y-78740000D03*
X69850000Y-78740000D03*
X67310000Y-78740000D03*
X64770000Y-78740000D03*
X64770000Y-86360000D03*
X67310000Y-86360000D03*
X69850000Y-86360000D03*
X72390000Y-86360000D03*
X74930000Y-86360000D03*
X77470000Y-86360000D03*
X80010000Y-86360000D03*
X82550000Y-86360000D03*
%TD*%
%TO.C,R13*%
X109220000Y-113030000D03*
D14*
X116840000Y-113030000D03*
%TD*%
D15*
%TO.C,R9*%
X161290000Y-107950000D03*
D14*
X161290000Y-115570000D03*
%TD*%
D15*
%TO.C,U1*%
X173990000Y-86360000D03*
X173990000Y-88900000D03*
X173990000Y-91440000D03*
X173990000Y-93980000D03*
X173990000Y-96520000D03*
X173990000Y-99060000D03*
X173990000Y-101600000D03*
X173990000Y-104140000D03*
X166370000Y-104140000D03*
X166370000Y-101600000D03*
X166370000Y-99060000D03*
X166370000Y-96520000D03*
X166370000Y-93980000D03*
X166370000Y-91440000D03*
X166370000Y-88900000D03*
D16*
X166370000Y-86360000D03*
%TD*%
D14*
%TO.C,R1*%
X148590000Y-111760000D03*
D15*
X156210000Y-111760000D03*
%TD*%
D13*
%TO.C,Q9*%
X114300000Y-106680000D03*
D12*
X113030000Y-106680000D03*
X111760000Y-106680000D03*
%TD*%
%TO.C,Q8*%
X76200000Y-116840000D03*
X77470000Y-116840000D03*
D13*
X78740000Y-116840000D03*
%TD*%
D14*
%TO.C,R11*%
X105410000Y-115470000D03*
D15*
X105410000Y-107850000D03*
%TD*%
D14*
%TO.C,C3*%
X165100000Y-78740000D03*
X165100000Y-81240000D03*
%TD*%
%TO.C,R8*%
X64770000Y-115470000D03*
D15*
X64770000Y-107850000D03*
%TD*%
D17*
%TO.C,H2*%
X172720000Y-118110000D03*
%TD*%
D13*
%TO.C,Q6*%
X134620000Y-116840000D03*
D12*
X133350000Y-116840000D03*
X132080000Y-116840000D03*
%TD*%
D14*
%TO.C,R5*%
X92710000Y-111760000D03*
D15*
X100330000Y-111760000D03*
%TD*%
D14*
%TO.C,C1*%
X167640000Y-81240000D03*
X167640000Y-78740000D03*
%TD*%
%TO.C,C4*%
X117475000Y-81240000D03*
X117475000Y-78740000D03*
%TD*%
D17*
%TO.C,H4*%
X53340000Y-80010000D03*
%TD*%
%TO.C,H3*%
X53340000Y-118110000D03*
%TD*%
D15*
%TO.C,R7*%
X77470000Y-111760000D03*
D14*
X69850000Y-111760000D03*
%TD*%
D15*
%TO.C,R6*%
X87630000Y-107850000D03*
D14*
X87630000Y-115470000D03*
%TD*%
D12*
%TO.C,Q7*%
X99060000Y-116840000D03*
X100330000Y-116840000D03*
D13*
X101600000Y-116840000D03*
%TD*%
D15*
%TO.C,R14*%
X113030000Y-86360000D03*
D14*
X113030000Y-93980000D03*
%TD*%
D15*
%TO.C,R3*%
X133350000Y-111760000D03*
D14*
X125730000Y-111760000D03*
%TD*%
D12*
%TO.C,Q3*%
X91440000Y-116840000D03*
X92710000Y-116840000D03*
D13*
X93980000Y-116840000D03*
%TD*%
%TO.C,Q2*%
X127000000Y-116840000D03*
D12*
X125730000Y-116840000D03*
X124460000Y-116840000D03*
%TD*%
D13*
%TO.C,Q4*%
X71120000Y-116840000D03*
D12*
X69850000Y-116840000D03*
X68580000Y-116840000D03*
%TD*%
D17*
%TO.C,H1*%
X172720000Y-80010000D03*
%TD*%
D18*
%TO.C,N5*%
X111442500Y-99060000D03*
X114617500Y-99060000D03*
%TD*%
D14*
%TO.C,C2*%
X58420000Y-81240000D03*
X58420000Y-78740000D03*
%TD*%
%TO.C,C6*%
X60960000Y-81240000D03*
X60960000Y-78740000D03*
%TD*%
%TO.C,R12*%
X82550000Y-115470000D03*
D15*
X82550000Y-107850000D03*
%TD*%
D14*
%TO.C,C5*%
X108585000Y-78740000D03*
X108585000Y-81240000D03*
%TD*%
%TO.C,R4*%
X120650000Y-115470000D03*
D15*
X120650000Y-107850000D03*
%TD*%
D19*
%TO.C,J1*%
X165100000Y-119380000D03*
X167640000Y-119380000D03*
X165100000Y-116840000D03*
X167640000Y-116840000D03*
X165100000Y-114300000D03*
X167640000Y-114300000D03*
X165100000Y-111760000D03*
X167640000Y-111760000D03*
X165100000Y-109220000D03*
D20*
X167640000Y-109220000D03*
%TD*%
D19*
%TO.C,J2*%
X58420000Y-119380000D03*
X60960000Y-119380000D03*
X58420000Y-116840000D03*
X60960000Y-116840000D03*
X58420000Y-114300000D03*
X60960000Y-114300000D03*
X58420000Y-111760000D03*
X60960000Y-111760000D03*
X58420000Y-109220000D03*
D20*
X60960000Y-109220000D03*
%TD*%
M02*
