%TF.GenerationSoftware,KiCad,Pcbnew,(6.0.0)*%
%TF.CreationDate,2022-01-22T21:07:16-08:00*%
%TF.ProjectId,nixie_tube_board,6e697869-655f-4747-9562-655f626f6172,rev?*%
%TF.SameCoordinates,Original*%
%TF.FileFunction,Legend,Bot*%
%TF.FilePolarity,Positive*%
%FSLAX46Y46*%
G04 Gerber Fmt 4.6, Leading zero omitted, Abs format (unit mm)*
G04 Created by KiCad (PCBNEW (6.0.0)) date 2022-01-22 21:07:16*
%MOMM*%
%LPD*%
G01*
G04 APERTURE LIST*
%ADD10C,0.150000*%
%ADD11C,0.120000*%
G04 APERTURE END LIST*
D10*
%TO.C,J1*%
X166703333Y-106342380D02*
X166703333Y-107056666D01*
X166750952Y-107199523D01*
X166846190Y-107294761D01*
X166989047Y-107342380D01*
X167084285Y-107342380D01*
X165703333Y-107342380D02*
X166274761Y-107342380D01*
X165989047Y-107342380D02*
X165989047Y-106342380D01*
X166084285Y-106485238D01*
X166179523Y-106580476D01*
X166274761Y-106628095D01*
%TO.C,J2*%
X60023333Y-106342380D02*
X60023333Y-107056666D01*
X60070952Y-107199523D01*
X60166190Y-107294761D01*
X60309047Y-107342380D01*
X60404285Y-107342380D01*
X59594761Y-106437619D02*
X59547142Y-106390000D01*
X59451904Y-106342380D01*
X59213809Y-106342380D01*
X59118571Y-106390000D01*
X59070952Y-106437619D01*
X59023333Y-106532857D01*
X59023333Y-106628095D01*
X59070952Y-106770952D01*
X59642380Y-107342380D01*
X59023333Y-107342380D01*
D11*
%TO.C,J1*%
X168970000Y-110490000D02*
X168970000Y-120710000D01*
X163770000Y-107890000D02*
X163770000Y-120710000D01*
X168970000Y-107890000D02*
X167640000Y-107890000D01*
X168970000Y-109220000D02*
X168970000Y-107890000D01*
X168970000Y-120710000D02*
X163770000Y-120710000D01*
X166370000Y-107890000D02*
X163770000Y-107890000D01*
X166370000Y-110490000D02*
X166370000Y-107890000D01*
X168970000Y-110490000D02*
X166370000Y-110490000D01*
%TO.C,J2*%
X62290000Y-107890000D02*
X60960000Y-107890000D01*
X62290000Y-120710000D02*
X57090000Y-120710000D01*
X59690000Y-110490000D02*
X59690000Y-107890000D01*
X57090000Y-107890000D02*
X57090000Y-120710000D01*
X59690000Y-107890000D02*
X57090000Y-107890000D01*
X62290000Y-110490000D02*
X62290000Y-120710000D01*
X62290000Y-110490000D02*
X59690000Y-110490000D01*
X62290000Y-109220000D02*
X62290000Y-107890000D01*
%TD*%
M02*
